Source-HROTx_VROTx_SLENx_SANGn.ufo
<glyph name="numbersign" format="2">
  <advance width="480"/>
  <unicode hex="0023"/>
  <outline>
    <contour>
      <point x="246" y="437" type="line"/>
      <point x="157" y="324" type="line" smooth="yes"/>
      <point x="157" y="324"/>
      <point x="157" y="324"/>
      <point x="157" y="324" type="curve" smooth="yes"/>
      <point x="21" y="152" type="line" smooth="yes"/>
      <point x="21" y="152"/>
      <point x="21" y="152"/>
      <point x="21" y="152" type="curve" smooth="yes"/>
      <point x="-68" y="39" type="line"/>
      <point x="-80" y="49" type="line"/>
      <point x="9" y="162" type="line" smooth="yes"/>
      <point x="9" y="162"/>
      <point x="9" y="162"/>
      <point x="9" y="162" type="curve" smooth="yes"/>
      <point x="145" y="334" type="line" smooth="yes"/>
      <point x="145" y="334"/>
      <point x="145" y="334"/>
      <point x="145" y="334" type="curve" smooth="yes"/>
      <point x="234" y="447" type="line"/>
    </contour>
    <contour>
      <point x="408" y="437" type="line"/>
      <point x="320" y="324" type="line" smooth="yes"/>
      <point x="320" y="324"/>
      <point x="320" y="324"/>
      <point x="320" y="324" type="curve" smooth="yes"/>
      <point x="184" y="152" type="line" smooth="yes"/>
      <point x="184" y="152"/>
      <point x="184" y="152"/>
      <point x="184" y="152" type="curve" smooth="yes"/>
      <point x="94" y="39" type="line"/>
      <point x="82" y="49" type="line"/>
      <point x="172" y="162" type="line" smooth="yes"/>
      <point x="172" y="162"/>
      <point x="172" y="162"/>
      <point x="172" y="162" type="curve" smooth="yes"/>
      <point x="308" y="334" type="line" smooth="yes"/>
      <point x="308" y="334"/>
      <point x="308" y="334"/>
      <point x="308" y="334" type="curve" smooth="yes"/>
      <point x="396" y="447" type="line"/>
    </contour>
    <contour>
      <point x="261" y="149" type="line"/>
      <point x="178" y="149" type="line"/>
      <point x="178" y="149"/>
      <point x="178" y="149"/>
      <point x="178" y="149" type="curve"/>
      <point x="15" y="149" type="line"/>
      <point x="15" y="149"/>
      <point x="15" y="149"/>
      <point x="15" y="149" type="curve"/>
      <point x="-54" y="149" type="line"/>
      <point x="-54" y="165" type="line"/>
      <point x="15" y="165" type="line"/>
      <point x="15" y="165"/>
      <point x="15" y="165"/>
      <point x="15" y="165" type="curve"/>
      <point x="178" y="165" type="line"/>
      <point x="178" y="165"/>
      <point x="178" y="165"/>
      <point x="178" y="165" type="curve"/>
      <point x="261" y="165" type="line"/>
    </contour>
    <contour>
      <point x="383" y="321" type="line"/>
      <point x="314" y="321" type="line"/>
      <point x="314" y="321"/>
      <point x="314" y="321"/>
      <point x="314" y="321" type="curve"/>
      <point x="151" y="321" type="line"/>
      <point x="151" y="321"/>
      <point x="151" y="321"/>
      <point x="151" y="321" type="curve"/>
      <point x="68" y="321" type="line"/>
      <point x="68" y="337" type="line"/>
      <point x="151" y="337" type="line"/>
      <point x="151" y="337"/>
      <point x="151" y="337"/>
      <point x="151" y="337" type="curve"/>
      <point x="314" y="337" type="line"/>
      <point x="314" y="337"/>
      <point x="314" y="337"/>
      <point x="314" y="337" type="curve"/>
      <point x="383" y="337" type="line"/>
    </contour>
    <contour>
      <point x="-5" y="177" type="line"/>
      <point x="-50" y="150" type="line" smooth="yes"/>
      <point x="-58" y="145"/>
      <point x="-66" y="156"/>
      <point x="-60" y="162" type="curve" smooth="yes"/>
      <point x="48" y="277" type="line"/>
      <point x="60" y="267" type="line"/>
      <point x="-48" y="152" type="line" smooth="yes"/>
      <point x="-55" y="145"/>
      <point x="-66" y="159"/>
      <point x="-58" y="164" type="curve" smooth="yes"/>
      <point x="-13" y="191" type="line"/>
    </contour>
    <contour>
      <point x="117" y="348" type="line"/>
      <point x="72" y="322" type="line" smooth="yes"/>
      <point x="64" y="317"/>
      <point x="56" y="328"/>
      <point x="62" y="334" type="curve" smooth="yes"/>
      <point x="169" y="449" type="line"/>
      <point x="181" y="439" type="line"/>
      <point x="74" y="324" type="line" smooth="yes"/>
      <point x="68" y="317"/>
      <point x="56" y="331"/>
      <point x="64" y="336" type="curve" smooth="yes"/>
      <point x="109" y="362" type="line"/>
    </contour>
    <contour>
      <point x="461" y="265" type="line"/>
      <point x="265" y="150" type="line" smooth="yes"/>
      <point x="257" y="146"/>
      <point x="251" y="163"/>
      <point x="259" y="165" type="curve" smooth="yes"/>
      <point x="393" y="192" type="line"/>
      <point x="397" y="176" type="line"/>
      <point x="263" y="149" type="line" smooth="yes"/>
      <point x="254" y="147"/>
      <point x="249" y="159"/>
      <point x="257" y="164" type="curve" smooth="yes"/>
      <point x="453" y="279" type="line"/>
    </contour>
    <contour>
      <point x="583" y="437" type="line"/>
      <point x="387" y="322" type="line" smooth="yes"/>
      <point x="379" y="318"/>
      <point x="373" y="335"/>
      <point x="381" y="337" type="curve" smooth="yes"/>
      <point x="514" y="363" type="line"/>
      <point x="518" y="347" type="line"/>
      <point x="385" y="321" type="line" smooth="yes"/>
      <point x="376" y="319"/>
      <point x="371" y="331"/>
      <point x="379" y="336" type="curve" smooth="yes"/>
      <point x="575" y="451" type="line"/>
    </contour>
    <contour>
      <point x="355" y="548" type="line"/>
      <point x="246" y="436" type="line" smooth="yes"/>
      <point x="239" y="430"/>
      <point x="228" y="444"/>
      <point x="236" y="449" type="curve" smooth="yes"/>
      <point x="433" y="561" type="line"/>
      <point x="441" y="547" type="line"/>
      <point x="244" y="435" type="line" smooth="yes"/>
      <point x="236" y="430"/>
      <point x="228" y="441"/>
      <point x="234" y="448" type="curve" smooth="yes"/>
      <point x="343" y="560" type="line"/>
    </contour>
    <contour>
      <point x="517" y="548" type="line"/>
      <point x="408" y="436" type="line" smooth="yes"/>
      <point x="401" y="430"/>
      <point x="390" y="444"/>
      <point x="398" y="449" type="curve" smooth="yes"/>
      <point x="595" y="561" type="line"/>
      <point x="603" y="547" type="line"/>
      <point x="406" y="435" type="line" smooth="yes"/>
      <point x="398" y="430"/>
      <point x="390" y="441"/>
      <point x="396" y="448" type="curve" smooth="yes"/>
      <point x="505" y="560" type="line"/>
    </contour>
    <contour>
      <point x="223" y="65" type="line"/>
      <point x="90" y="36" type="line" smooth="yes"/>
      <point x="81" y="34"/>
      <point x="76" y="46"/>
      <point x="84" y="51" type="curve" smooth="yes"/>
      <point x="129" y="80" type="line"/>
      <point x="137" y="66" type="line"/>
      <point x="92" y="37" type="line" smooth="yes"/>
      <point x="85" y="32"/>
      <point x="78" y="50"/>
      <point x="86" y="52" type="curve" smooth="yes"/>
      <point x="219" y="81" type="line"/>
    </contour>
    <contour>
      <point x="61" y="65" type="line"/>
      <point x="-72" y="36" type="line" smooth="yes"/>
      <point x="-81" y="34"/>
      <point x="-86" y="46"/>
      <point x="-78" y="51" type="curve" smooth="yes"/>
      <point x="-33" y="80" type="line"/>
      <point x="-25" y="66" type="line"/>
      <point x="-70" y="37" type="line" smooth="yes"/>
      <point x="-77" y="32"/>
      <point x="-84" y="50"/>
      <point x="-76" y="52" type="curve" smooth="yes"/>
      <point x="57" y="81" type="line"/>
    </contour>
    <contour>
      <point x="355" y="437" type="line"/>
      <point x="155" y="322" type="line" smooth="yes"/>
      <point x="146" y="317"/>
      <point x="138" y="330"/>
      <point x="147" y="336" type="curve" smooth="yes"/>
      <point x="189" y="362" type="line"/>
      <point x="197" y="348" type="line"/>
      <point x="155" y="322" type="line" smooth="yes"/>
      <point x="146" y="317"/>
      <point x="138" y="331"/>
      <point x="147" y="336" type="curve" smooth="yes"/>
      <point x="347" y="451" type="line"/>
    </contour>
    <contour>
      <point x="268" y="438" type="line"/>
      <point x="157" y="323" type="line" smooth="yes"/>
      <point x="151" y="318"/>
      <point x="142" y="335"/>
      <point x="149" y="337" type="curve" smooth="yes"/>
      <point x="279" y="363" type="line"/>
      <point x="283" y="347" type="line"/>
      <point x="153" y="321" type="line" smooth="yes"/>
      <point x="145" y="320"/>
      <point x="140" y="329"/>
      <point x="145" y="335" type="curve" smooth="yes"/>
      <point x="256" y="450" type="line"/>
    </contour>
    <contour>
      <point x="517" y="437" type="line"/>
      <point x="318" y="322" type="line" smooth="yes"/>
      <point x="309" y="317"/>
      <point x="301" y="330"/>
      <point x="310" y="336" type="curve" smooth="yes"/>
      <point x="351" y="362" type="line"/>
      <point x="359" y="348" type="line"/>
      <point x="318" y="322" type="line" smooth="yes"/>
      <point x="309" y="317"/>
      <point x="301" y="331"/>
      <point x="310" y="336" type="curve" smooth="yes"/>
      <point x="509" y="451" type="line"/>
    </contour>
    <contour>
      <point x="430" y="438" type="line"/>
      <point x="320" y="323" type="line" smooth="yes"/>
      <point x="314" y="318"/>
      <point x="305" y="335"/>
      <point x="312" y="337" type="curve" smooth="yes"/>
      <point x="441" y="363" type="line"/>
      <point x="445" y="347" type="line"/>
      <point x="316" y="321" type="line" smooth="yes"/>
      <point x="308" y="320"/>
      <point x="303" y="329"/>
      <point x="308" y="335" type="curve" smooth="yes"/>
      <point x="418" y="450" type="line"/>
    </contour>
    <contour>
      <point x="219" y="265" type="line"/>
      <point x="19" y="150" type="line" smooth="yes"/>
      <point x="10" y="145"/>
      <point x="2" y="158"/>
      <point x="11" y="164" type="curve" smooth="yes"/>
      <point x="53" y="191" type="line"/>
      <point x="61" y="177" type="line"/>
      <point x="19" y="150" type="line" smooth="yes"/>
      <point x="11" y="145"/>
      <point x="2" y="159"/>
      <point x="11" y="164" type="curve" smooth="yes"/>
      <point x="211" y="279" type="line"/>
    </contour>
    <contour>
      <point x="133" y="266" type="line"/>
      <point x="21" y="151" type="line" smooth="yes"/>
      <point x="15" y="146"/>
      <point x="6" y="163"/>
      <point x="13" y="165" type="curve" smooth="yes"/>
      <point x="144" y="192" type="line"/>
      <point x="148" y="176" type="line"/>
      <point x="17" y="149" type="line" smooth="yes"/>
      <point x="9" y="148"/>
      <point x="4" y="157"/>
      <point x="9" y="163" type="curve" smooth="yes"/>
      <point x="121" y="278" type="line"/>
    </contour>
    <contour>
      <point x="381" y="265" type="line"/>
      <point x="182" y="150" type="line" smooth="yes"/>
      <point x="173" y="145"/>
      <point x="165" y="158"/>
      <point x="174" y="164" type="curve" smooth="yes"/>
      <point x="215" y="191" type="line"/>
      <point x="223" y="177" type="line"/>
      <point x="182" y="150" type="line" smooth="yes"/>
      <point x="174" y="145"/>
      <point x="165" y="159"/>
      <point x="174" y="164" type="curve" smooth="yes"/>
      <point x="373" y="279" type="line"/>
    </contour>
    <contour>
      <point x="295" y="266" type="line"/>
      <point x="184" y="151" type="line" smooth="yes"/>
      <point x="178" y="146"/>
      <point x="169" y="163"/>
      <point x="176" y="165" type="curve" smooth="yes"/>
      <point x="306" y="192" type="line"/>
      <point x="310" y="176" type="line"/>
      <point x="180" y="149" type="line" smooth="yes"/>
      <point x="172" y="148"/>
      <point x="167" y="157"/>
      <point x="172" y="163" type="curve" smooth="yes"/>
      <point x="283" y="278" type="line"/>
    </contour>
  </outline>
</glyph>
<glyph name="ampersand" format="2">
  <advance width="467"/>
  <unicode hex="0026"/>
  <outline>
    <contour>
      <point x="172" y="321" type="line"/>
      <point x="223" y="252" type="line" smooth="yes"/>
      <point x="225" y="250"/>
      <point x="214" y="255"/>
      <point x="217" y="255" type="curve" smooth="yes"/>
      <point x="275" y="255" type="line"/>
      <point x="275" y="255"/>
      <point x="275" y="255"/>
      <point x="275" y="255" type="curve"/>
      <point x="326" y="255" type="line"/>
      <point x="326" y="239" type="line"/>
      <point x="275" y="239" type="line"/>
      <point x="275" y="239"/>
      <point x="275" y="239"/>
      <point x="275" y="239" type="curve"/>
      <point x="217" y="239" type="line" smooth="yes"/>
      <point x="214" y="239"/>
      <point x="212" y="240"/>
      <point x="211" y="242" type="curve" smooth="yes"/>
      <point x="160" y="311" type="line"/>
    </contour>
    <contour>
      <point x="363" y="432" type="line"/>
      <point x="348" y="437"/>
      <point x="330" y="440"/>
      <point x="311" y="440" type="curve"/>
      <point x="311" y="440"/>
      <point x="311" y="440"/>
      <point x="311" y="440" type="curve"/>
      <point x="239" y="440"/>
      <point x="159" y="408"/>
      <point x="115" y="345" type="curve" smooth="yes"/>
      <point x="115" y="345"/>
      <point x="115" y="345"/>
      <point x="115" y="345" type="curve" smooth="yes"/>
      <point x="73" y="287"/>
      <point x="106" y="255"/>
      <point x="225" y="255" type="curve" smooth="yes"/>
      <point x="236" y="255"/>
      <point x="236" y="239"/>
      <point x="225" y="239" type="curve" smooth="yes"/>
      <point x="99" y="239"/>
      <point x="0" y="204"/>
      <point x="-50" y="130" type="curve" smooth="yes"/>
      <point x="-50" y="130"/>
      <point x="-50" y="130"/>
      <point x="-50" y="130" type="curve" smooth="yes"/>
      <point x="-90" y="76"/>
      <point x="-70" y="43"/>
      <point x="-4" y="43" type="curve"/>
      <point x="-4" y="43"/>
      <point x="-4" y="43"/>
      <point x="-4" y="43" type="curve"/>
      <point x="71" y="43"/>
      <point x="149" y="83"/>
      <point x="196" y="151" type="curve" smooth="yes"/>
      <point x="196" y="151"/>
      <point x="196" y="151"/>
      <point x="196" y="151" type="curve" smooth="yes"/>
      <point x="268" y="252" type="line" smooth="yes"/>
      <point x="268" y="252"/>
      <point x="268" y="252"/>
      <point x="268" y="252" type="curve" smooth="yes"/>
      <point x="311" y="313" type="line"/>
      <point x="325" y="303" type="line"/>
      <point x="282" y="242" type="line" smooth="yes"/>
      <point x="282" y="242"/>
      <point x="282" y="242"/>
      <point x="282" y="242" type="curve" smooth="yes"/>
      <point x="210" y="141" type="line" smooth="yes"/>
      <point x="210" y="141"/>
      <point x="210" y="141"/>
      <point x="210" y="141" type="curve" smooth="yes"/>
      <point x="159" y="69"/>
      <point x="75" y="27"/>
      <point x="-4" y="27" type="curve"/>
      <point x="-4" y="27"/>
      <point x="-4" y="27"/>
      <point x="-4" y="27" type="curve"/>
      <point x="-84" y="27"/>
      <point x="-110" y="74"/>
      <point x="-64" y="140" type="curve" smooth="yes"/>
      <point x="-63" y="140"/>
      <point x="-64" y="140"/>
      <point x="-64" y="140" type="curve" smooth="yes"/>
      <point x="-10" y="216"/>
      <point x="93" y="255"/>
      <point x="225" y="255" type="curve" smooth="yes"/>
      <point x="236" y="255"/>
      <point x="236" y="239"/>
      <point x="225" y="239" type="curve" smooth="yes"/>
      <point x="87" y="239"/>
      <point x="53" y="287"/>
      <point x="101" y="355" type="curve" smooth="yes"/>
      <point x="101" y="355"/>
      <point x="101" y="355"/>
      <point x="101" y="355" type="curve" smooth="yes"/>
      <point x="149" y="422"/>
      <point x="233" y="456"/>
      <point x="311" y="456" type="curve"/>
      <point x="311" y="456"/>
      <point x="311" y="456"/>
      <point x="311" y="456" type="curve"/>
      <point x="332" y="456"/>
      <point x="352" y="453"/>
      <point x="369" y="446" type="curve"/>
    </contour>
    <contour>
      <point x="563" y="543" type="line"/>
      <point x="370" y="432" type="line" smooth="yes"/>
      <point x="363" y="428"/>
      <point x="358" y="447"/>
      <point x="366" y="447" type="curve" smooth="yes"/>
      <point x="477" y="443" type="line"/>
      <point x="477" y="427" type="line"/>
      <point x="366" y="431" type="line" smooth="yes"/>
      <point x="358" y="431"/>
      <point x="355" y="442"/>
      <point x="362" y="446" type="curve" smooth="yes"/>
      <point x="555" y="557" type="line"/>
    </contour>
    <contour>
      <point x="425" y="418" type="line"/>
      <point x="324" y="303" type="line" smooth="yes"/>
      <point x="318" y="296"/>
      <point x="306" y="311"/>
      <point x="314" y="315" type="curve" smooth="yes"/>
      <point x="517" y="430" type="line"/>
      <point x="525" y="416" type="line"/>
      <point x="322" y="301" type="line" smooth="yes"/>
      <point x="314" y="297"/>
      <point x="306" y="307"/>
      <point x="312" y="313" type="curve" smooth="yes"/>
      <point x="413" y="428" type="line"/>
    </contour>
    <contour>
      <point x="524" y="353" type="line"/>
      <point x="330" y="240" type="line" smooth="yes"/>
      <point x="322" y="235"/>
      <point x="315" y="253"/>
      <point x="324" y="255" type="curve" smooth="yes"/>
      <point x="459" y="285" type="line"/>
      <point x="463" y="269" type="line"/>
      <point x="328" y="239" type="line" smooth="yes"/>
      <point x="319" y="237"/>
      <point x="314" y="249"/>
      <point x="322" y="254" type="curve" smooth="yes"/>
      <point x="516" y="367" type="line"/>
    </contour>
    <contour>
      <point x="381" y="355" type="line"/>
      <point x="281" y="242" type="line" smooth="yes"/>
      <point x="276" y="236"/>
      <point x="266" y="253"/>
      <point x="273" y="255" type="curve" smooth="yes"/>
      <point x="416" y="285" type="line"/>
      <point x="420" y="269" type="line"/>
      <point x="277" y="239" type="line" smooth="yes"/>
      <point x="269" y="238"/>
      <point x="264" y="247"/>
      <point x="269" y="252" type="curve" smooth="yes"/>
      <point x="369" y="365" type="line"/>
    </contour>
    <contour>
      <point x="481" y="353" type="line"/>
      <point x="279" y="240" type="line" smooth="yes"/>
      <point x="270" y="235"/>
      <point x="262" y="248"/>
      <point x="270" y="253" type="curve" smooth="yes"/>
      <point x="311" y="283" type="line"/>
      <point x="321" y="271" type="line"/>
      <point x="280" y="241" type="line" smooth="yes"/>
      <point x="272" y="235"/>
      <point x="262" y="249"/>
      <point x="271" y="254" type="curve" smooth="yes"/>
      <point x="473" y="367" type="line"/>
    </contour>
  </outline>
</glyph>
<glyph name="parenleft" format="2">
  <advance width="341"/>
  <unicode hex="0028"/>
  <outline>
    <contour>
      <point x="390" y="521" type="line"/>
      <point x="271" y="492"/>
      <point x="129" y="399"/>
      <point x="16" y="238" type="curve"/>
      <point x="16" y="238"/>
      <point x="16" y="238"/>
      <point x="16" y="238" type="curve"/>
      <point x="-94" y="83"/>
      <point x="-87" y="-7"/>
      <point x="-13" y="-36" type="curve"/>
      <point x="-19" y="-50" type="line"/>
      <point x="-100" y="-19"/>
      <point x="-118" y="77"/>
      <point x="2" y="248" type="curve"/>
      <point x="2" y="248"/>
      <point x="2" y="248"/>
      <point x="2" y="248" type="curve"/>
      <point x="119" y="413"/>
      <point x="265" y="506"/>
      <point x="386" y="537" type="curve"/>
    </contour>
    <contour>
      <point x="601" y="655" type="line"/>
      <point x="392" y="522" type="line" smooth="yes"/>
      <point x="385" y="518"/>
      <point x="378" y="535"/>
      <point x="387" y="537" type="curve" smooth="yes"/>
      <point x="518" y="561" type="line"/>
      <point x="520" y="545" type="line"/>
      <point x="389" y="521" type="line" smooth="yes"/>
      <point x="381" y="520"/>
      <point x="376" y="531"/>
      <point x="384" y="536" type="curve" smooth="yes"/>
      <point x="593" y="669" type="line"/>
    </contour>
    <contour>
      <point x="185" y="68" type="line"/>
      <point x="-12" y="-50" type="line" smooth="yes"/>
      <point x="-19" y="-54"/>
      <point x="-25" y="-36"/>
      <point x="-17" y="-35" type="curve" smooth="yes"/>
      <point x="103" y="-27" type="line"/>
      <point x="105" y="-43" type="line"/>
      <point x="-15" y="-51" type="line" smooth="yes"/>
      <point x="-24" y="-52"/>
      <point x="-27" y="-40"/>
      <point x="-20" y="-36" type="curve" smooth="yes"/>
      <point x="177" y="82" type="line"/>
    </contour>
  </outline>
</glyph>
<glyph name="parenright" format="2">
  <advance width="341"/>
  <unicode hex="0029"/>
  <outline>
    <contour>
      <point x="-200" y="-34" type="line"/>
      <point x="-81" y="-5"/>
      <point x="61" y="88"/>
      <point x="174" y="249" type="curve" smooth="yes"/>
      <point x="174" y="249"/>
      <point x="174" y="249"/>
      <point x="174" y="249" type="curve" smooth="yes"/>
      <point x="284" y="403"/>
      <point x="277" y="494"/>
      <point x="203" y="522" type="curve"/>
      <point x="209" y="536" type="line"/>
      <point x="290" y="506"/>
      <point x="308" y="409"/>
      <point x="188" y="239" type="curve" smooth="yes"/>
      <point x="188" y="239"/>
      <point x="188" y="239"/>
      <point x="188" y="239" type="curve" smooth="yes"/>
      <point x="71" y="74"/>
      <point x="-75" y="-19"/>
      <point x="-196" y="-50" type="curve"/>
    </contour>
    <contour>
      <point x="-163" y="-42" type="line"/>
      <point x="-196" y="-50" type="line" smooth="yes"/>
      <point x="-204" y="-52"/>
      <point x="-209" y="-42"/>
      <point x="-204" y="-37" type="curve" smooth="yes"/>
      <point x="-94" y="80" type="line"/>
      <point x="-82" y="70" type="line"/>
      <point x="-192" y="-47" type="line" smooth="yes"/>
      <point x="-198" y="-53"/>
      <point x="-208" y="-36"/>
      <point x="-200" y="-34" type="curve" smooth="yes"/>
      <point x="-167" y="-26" type="line"/>
    </contour>
    <contour>
      <point x="254" y="546" type="line"/>
      <point x="210" y="522" type="line" smooth="yes"/>
      <point x="202" y="518"/>
      <point x="194" y="528"/>
      <point x="200" y="534" type="curve" smooth="yes"/>
      <point x="322" y="668" type="line"/>
      <point x="334" y="658" type="line"/>
      <point x="212" y="524" type="line" smooth="yes"/>
      <point x="206" y="517"/>
      <point x="194" y="532"/>
      <point x="202" y="536" type="curve" smooth="yes"/>
      <point x="246" y="560" type="line"/>
    </contour>
  </outline>
</glyph>
<glyph name="plus" format="2">
  <advance width="382"/>
  <unicode hex="002B"/>
  <outline>
    <contour>
      <point x="219" y="214" type="line"/>
      <point x="-19" y="214" type="line"/>
      <point x="-19" y="230" type="line"/>
      <point x="219" y="230" type="line"/>
    </contour>
    <contour>
      <point x="192" y="338" type="line"/>
      <point x="19" y="94" type="line"/>
      <point x="5" y="104" type="line"/>
      <point x="178" y="348" type="line"/>
    </contour>
    <contour>
      <point x="31" y="241" type="line"/>
      <point x="-15" y="215" type="line" smooth="yes"/>
      <point x="-23" y="211"/>
      <point x="-31" y="221"/>
      <point x="-25" y="227" type="curve" smooth="yes"/>
      <point x="84" y="343" type="line"/>
      <point x="96" y="333" type="line"/>
      <point x="-13" y="217" type="line" smooth="yes"/>
      <point x="-19" y="210"/>
      <point x="-31" y="224"/>
      <point x="-23" y="229" type="curve" smooth="yes"/>
      <point x="23" y="255" type="line"/>
    </contour>
    <contour>
      <point x="420" y="331" type="line"/>
      <point x="223" y="215" type="line" smooth="yes"/>
      <point x="215" y="211"/>
      <point x="209" y="228"/>
      <point x="217" y="230" type="curve" smooth="yes"/>
      <point x="350" y="256" type="line"/>
      <point x="354" y="240" type="line"/>
      <point x="221" y="214" type="line" smooth="yes"/>
      <point x="212" y="212"/>
      <point x="207" y="224"/>
      <point x="215" y="229" type="curve" smooth="yes"/>
      <point x="412" y="345" type="line"/>
    </contour>
    <contour>
      <point x="297" y="453" type="line"/>
      <point x="191" y="338" type="line" smooth="yes"/>
      <point x="185" y="331"/>
      <point x="173" y="345"/>
      <point x="181" y="350" type="curve" smooth="yes"/>
      <point x="379" y="465" type="line"/>
      <point x="387" y="451" type="line"/>
      <point x="189" y="336" type="line" smooth="yes"/>
      <point x="181" y="331"/>
      <point x="173" y="342"/>
      <point x="179" y="348" type="curve" smooth="yes"/>
      <point x="285" y="463" type="line"/>
    </contour>
    <contour>
      <point x="150" y="118" type="line"/>
      <point x="14" y="91" type="line" smooth="yes"/>
      <point x="5" y="89"/>
      <point x="0" y="101"/>
      <point x="8" y="106" type="curve" smooth="yes"/>
      <point x="52" y="133" type="line"/>
      <point x="60" y="119" type="line"/>
      <point x="16" y="92" type="line" smooth="yes"/>
      <point x="9" y="88"/>
      <point x="2" y="105"/>
      <point x="10" y="107" type="curve" smooth="yes"/>
      <point x="146" y="134" type="line"/>
    </contour>
    <contour>
      <point x="146" y="241" type="line"/>
      <point x="103" y="215" type="line" smooth="yes"/>
      <point x="94" y="210"/>
      <point x="86" y="224"/>
      <point x="95" y="229" type="curve" smooth="yes"/>
      <point x="294" y="345" type="line"/>
      <point x="302" y="331" type="line"/>
      <point x="103" y="215" type="line" smooth="yes"/>
      <point x="94" y="210"/>
      <point x="86" y="223"/>
      <point x="95" y="229" type="curve" smooth="yes"/>
      <point x="138" y="255" type="line"/>
    </contour>
    <contour>
      <point x="212" y="333" type="line"/>
      <point x="105" y="217" type="line" smooth="yes"/>
      <point x="100" y="211"/>
      <point x="90" y="228"/>
      <point x="97" y="230" type="curve" smooth="yes"/>
      <point x="233" y="256" type="line"/>
      <point x="237" y="240" type="line"/>
      <point x="101" y="214" type="line" smooth="yes"/>
      <point x="93" y="213"/>
      <point x="88" y="222"/>
      <point x="93" y="227" type="curve" smooth="yes"/>
      <point x="200" y="343" type="line"/>
    </contour>
  </outline>
</glyph>
<glyph name="hyphen" format="2">
  <advance width="240"/>
  <unicode hex="002D"/>
  <outline>
    <contour>
      <point x="95" y="231" type="line"/>
      <point x="-24" y="208" type="line"/>
      <point x="-28" y="224" type="line"/>
      <point x="91" y="247" type="line"/>
    </contour>
    <contour>
      <point x="16" y="226" type="line"/>
      <point x="-23" y="209" type="line" smooth="yes"/>
      <point x="-31" y="205"/>
      <point x="-38" y="215"/>
      <point x="-32" y="222" type="curve" smooth="yes"/>
      <point x="69" y="327" type="line"/>
      <point x="81" y="315" type="line"/>
      <point x="-20" y="210" type="line" smooth="yes"/>
      <point x="-26" y="204"/>
      <point x="-37" y="220"/>
      <point x="-29" y="223" type="curve" smooth="yes"/>
      <point x="10" y="240" type="line"/>
    </contour>
    <contour>
      <point x="300" y="357" type="line"/>
      <point x="97" y="232" type="line" smooth="yes"/>
      <point x="89" y="227"/>
      <point x="82" y="244"/>
      <point x="91" y="247" type="curve" smooth="yes"/>
      <point x="231" y="283" type="line"/>
      <point x="235" y="267" type="line"/>
      <point x="95" y="231" type="line" smooth="yes"/>
      <point x="86" y="229"/>
      <point x="81" y="241"/>
      <point x="89" y="246" type="curve" smooth="yes"/>
      <point x="292" y="371" type="line"/>
    </contour>
  </outline>
</glyph>
<glyph name="slash" format="2">
  <advance width="346"/>
  <unicode hex="002F"/>
  <outline>
    <contour>
      <point x="368" y="483" type="line"/>
      <point x="-164" y="-13" type="line"/>
      <point x="-174" y="-1" type="line"/>
      <point x="358" y="495" type="line"/>
    </contour>
    <contour>
      <point x="-43" y="12" type="line"/>
      <point x="-167" y="-15" type="line" smooth="yes"/>
      <point x="-175" y="-16"/>
      <point x="-180" y="-7"/>
      <point x="-175" y="-2" type="curve" smooth="yes"/>
      <point x="-151" y="25" type="line"/>
      <point x="-139" y="15" type="line"/>
      <point x="-163" y="-12" type="line" smooth="yes"/>
      <point x="-168" y="-18"/>
      <point x="-178" y="-1"/>
      <point x="-171" y="1" type="curve" smooth="yes"/>
      <point x="-47" y="28" type="line"/>
    </contour>
    <contour>
      <point x="486" y="598" type="line"/>
      <point x="369" y="483" type="line" smooth="yes"/>
      <point x="362" y="477"/>
      <point x="351" y="492"/>
      <point x="359" y="496" type="curve" smooth="yes"/>
      <point x="575" y="611" type="line"/>
      <point x="583" y="597" type="line"/>
      <point x="367" y="482" type="line" smooth="yes"/>
      <point x="359" y="478"/>
      <point x="351" y="488"/>
      <point x="357" y="495" type="curve" smooth="yes"/>
      <point x="474" y="610" type="line"/>
    </contour>
  </outline>
</glyph>
<glyph name="A" format="2">
  <advance width="474"/>
  <unicode hex="0041"/>
  <outline>
    <contour>
      <point x="-136" y="58" type="line"/>
      <point x="-32" y="156" type="line" smooth="yes"/>
      <point x="-32" y="156"/>
      <point x="-32" y="156"/>
      <point x="-32" y="156" type="curve" smooth="yes"/>
      <point x="264" y="433" type="line" smooth="yes"/>
      <point x="265" y="434"/>
      <point x="267" y="435"/>
      <point x="269" y="435" type="curve" smooth="yes"/>
      <point x="309" y="435" type="line" smooth="yes"/>
      <point x="314" y="435"/>
      <point x="318" y="430"/>
      <point x="317" y="424" type="curve" smooth="yes"/>
      <point x="222" y="147" type="line" smooth="yes"/>
      <point x="222" y="147"/>
      <point x="222" y="147"/>
      <point x="222" y="147" type="curve" smooth="yes"/>
      <point x="186" y="49" type="line"/>
      <point x="170" y="55" type="line"/>
      <point x="206" y="153" type="line" smooth="yes"/>
      <point x="207" y="153"/>
      <point x="206" y="153"/>
      <point x="206" y="153" type="curve" smooth="yes"/>
      <point x="301" y="430" type="line" smooth="yes"/>
      <point x="303" y="435"/>
      <point x="314" y="419"/>
      <point x="309" y="419" type="curve" smooth="yes"/>
      <point x="269" y="419" type="line" smooth="yes"/>
      <point x="267" y="419"/>
      <point x="276" y="423"/>
      <point x="274" y="421" type="curve" smooth="yes"/>
      <point x="-22" y="144" type="line" smooth="yes"/>
      <point x="-22" y="144"/>
      <point x="-22" y="144"/>
      <point x="-22" y="144" type="curve" smooth="yes"/>
      <point x="-126" y="46" type="line"/>
    </contour>
    <contour>
      <point x="214" y="142" type="line"/>
      <point x="-27" y="142" type="line"/>
      <point x="-27" y="158" type="line"/>
      <point x="214" y="158" type="line"/>
    </contour>
    <contour>
      <point x="404" y="548" type="line"/>
      <point x="275" y="421" type="line" smooth="yes"/>
      <point x="270" y="417"/>
      <point x="264" y="436"/>
      <point x="270" y="435" type="curve" smooth="yes"/>
      <point x="350" y="423" type="line" smooth="yes"/>
      <point x="360" y="421"/>
      <point x="356" y="404"/>
      <point x="347" y="407" type="curve" smooth="yes"/>
      <point x="307" y="419" type="line" smooth="yes"/>
      <point x="300" y="421"/>
      <point x="299" y="430"/>
      <point x="305" y="434" type="curve" smooth="yes"/>
      <point x="502" y="561" type="line"/>
      <point x="510" y="547" type="line"/>
      <point x="313" y="420" type="line" smooth="yes"/>
      <point x="308" y="417"/>
      <point x="305" y="437"/>
      <point x="311" y="435" type="curve" smooth="yes"/>
      <point x="351" y="423" type="line" smooth="yes"/>
      <point x="361" y="420"/>
      <point x="358" y="406"/>
      <point x="348" y="407" type="curve" smooth="yes"/>
      <point x="268" y="419" type="line" smooth="yes"/>
      <point x="261" y="420"/>
      <point x="259" y="428"/>
      <point x="263" y="433" type="curve" smooth="yes"/>
      <point x="392" y="560" type="line"/>
    </contour>
    <contour>
      <point x="192" y="258" type="line"/>
      <point x="-23" y="143" type="line" smooth="yes"/>
      <point x="-31" y="139"/>
      <point x="-38" y="156"/>
      <point x="-29" y="158" type="curve" smooth="yes"/>
      <point x="95" y="184" type="line"/>
      <point x="99" y="168" type="line"/>
      <point x="-25" y="142" type="line" smooth="yes"/>
      <point x="-34" y="140"/>
      <point x="-39" y="153"/>
      <point x="-31" y="157" type="curve" smooth="yes"/>
      <point x="184" y="272" type="line"/>
    </contour>
    <contour>
      <point x="303" y="260" type="line"/>
      <point x="220" y="145" type="line" smooth="yes"/>
      <point x="216" y="138"/>
      <point x="203" y="153"/>
      <point x="210" y="157" type="curve" smooth="yes"/>
      <point x="259" y="183" type="line"/>
      <point x="267" y="169" type="line"/>
      <point x="218" y="143" type="line" smooth="yes"/>
      <point x="210" y="139"/>
      <point x="203" y="148"/>
      <point x="208" y="155" type="curve" smooth="yes"/>
      <point x="291" y="270" type="line"/>
    </contour>
    <contour>
      <point x="18" y="65" type="line"/>
      <point x="-130" y="44" type="line" smooth="yes"/>
      <point x="-135" y="43"/>
      <point x="-140" y="48"/>
      <point x="-139" y="53" type="curve" smooth="yes"/>
      <point x="-136" y="74" type="line"/>
      <point x="-120" y="72" type="line"/>
      <point x="-123" y="51" type="line" smooth="yes"/>
      <point x="-124" y="46"/>
      <point x="-137" y="59"/>
      <point x="-132" y="60" type="curve" smooth="yes"/>
      <point x="16" y="81" type="line"/>
    </contour>
    <contour>
      <point x="353" y="65" type="line"/>
      <point x="179" y="44" type="line" smooth="yes"/>
      <point x="172" y="43"/>
      <point x="167" y="52"/>
      <point x="172" y="58" type="curve" smooth="yes"/>
      <point x="192" y="79" type="line"/>
      <point x="204" y="67" type="line"/>
      <point x="184" y="46" type="line" smooth="yes"/>
      <point x="179" y="41"/>
      <point x="170" y="59"/>
      <point x="177" y="60" type="curve" smooth="yes"/>
      <point x="351" y="81" type="line"/>
    </contour>
  </outline>
</glyph>
<glyph name="C" format="2">
  <advance width="432"/>
  <unicode hex="0043"/>
  <outline>
    <contour>
      <point x="399" y="425" type="line"/>
      <point x="382" y="433"/>
      <point x="357" y="439"/>
      <point x="333" y="439" type="curve"/>
      <point x="333" y="439"/>
      <point x="333" y="439"/>
      <point x="333" y="439" type="curve"/>
      <point x="223" y="439"/>
      <point x="96" y="358"/>
      <point x="11" y="237" type="curve" smooth="yes"/>
      <point x="11" y="237"/>
      <point x="11" y="237"/>
      <point x="11" y="237" type="curve" smooth="yes"/>
      <point x="-71" y="122"/>
      <point x="-61" y="47"/>
      <point x="45" y="47" type="curve"/>
      <point x="45" y="47"/>
      <point x="45" y="47"/>
      <point x="45" y="47" type="curve"/>
      <point x="69" y="47"/>
      <point x="105" y="52"/>
      <point x="133" y="61" type="curve"/>
      <point x="137" y="45" type="line"/>
      <point x="109" y="36"/>
      <point x="71" y="31"/>
      <point x="45" y="31" type="curve"/>
      <point x="45" y="31"/>
      <point x="45" y="31"/>
      <point x="45" y="31" type="curve"/>
      <point x="-73" y="31"/>
      <point x="-93" y="118"/>
      <point x="-3" y="247" type="curve" smooth="yes"/>
      <point x="-3" y="247"/>
      <point x="-3" y="247"/>
      <point x="-3" y="247" type="curve" smooth="yes"/>
      <point x="86" y="372"/>
      <point x="219" y="455"/>
      <point x="333" y="455" type="curve"/>
      <point x="333" y="455"/>
      <point x="333" y="455"/>
      <point x="333" y="455" type="curve"/>
      <point x="359" y="455"/>
      <point x="388" y="449"/>
      <point x="407" y="439" type="curve"/>
    </contour>
    <contour>
      <point x="597" y="531" type="line"/>
      <point x="407" y="425" type="line" smooth="yes"/>
      <point x="400" y="421"/>
      <point x="396" y="441"/>
      <point x="404" y="440" type="curve" smooth="yes"/>
      <point x="510" y="428" type="line"/>
      <point x="508" y="412" type="line"/>
      <point x="402" y="424" type="line" smooth="yes"/>
      <point x="394" y="425"/>
      <point x="392" y="435"/>
      <point x="399" y="439" type="curve" smooth="yes"/>
      <point x="589" y="545" type="line"/>
    </contour>
    <contour>
      <point x="364" y="201" type="line"/>
      <point x="140" y="46" type="line" smooth="yes"/>
      <point x="132" y="41"/>
      <point x="124" y="59"/>
      <point x="133" y="61" type="curve" smooth="yes"/>
      <point x="273" y="97" type="line"/>
      <point x="277" y="81" type="line"/>
      <point x="137" y="45" type="line" smooth="yes"/>
      <point x="128" y="43"/>
      <point x="123" y="54"/>
      <point x="130" y="60" type="curve" smooth="yes"/>
      <point x="354" y="215" type="line"/>
    </contour>
  </outline>
</glyph>
<glyph name="E" format="2">
  <advance width="389"/>
  <unicode hex="0045"/>
  <outline>
    <contour>
      <point x="353" y="427" type="line"/>
      <point x="305" y="430"/>
      <point x="224" y="433"/>
      <point x="174" y="432" type="curve" smooth="yes"/>
      <point x="172" y="432"/>
      <point x="182" y="437"/>
      <point x="181" y="435" type="curve" smooth="yes"/>
      <point x="-97" y="41" type="line" smooth="yes"/>
      <point x="-101" y="36"/>
      <point x="-110" y="54"/>
      <point x="-104" y="54" type="curve" smooth="yes"/>
      <point x="-55" y="53"/>
      <point x="27" y="55"/>
      <point x="80" y="59" type="curve"/>
      <point x="82" y="43" type="line"/>
      <point x="27" y="39"/>
      <point x="-55" y="37"/>
      <point x="-104" y="38" type="curve" smooth="yes"/>
      <point x="-111" y="38"/>
      <point x="-114" y="45"/>
      <point x="-111" y="51" type="curve" smooth="yes"/>
      <point x="167" y="445" type="line" smooth="yes"/>
      <point x="169" y="447"/>
      <point x="171" y="448"/>
      <point x="174" y="448" type="curve" smooth="yes"/>
      <point x="224" y="449"/>
      <point x="305" y="446"/>
      <point x="353" y="443" type="curve"/>
    </contour>
    <contour>
      <point x="203" y="242" type="line"/>
      <point x="40" y="242" type="line"/>
      <point x="40" y="258" type="line"/>
      <point x="203" y="258" type="line"/>
    </contour>
    <contour>
      <point x="105" y="155" type="line"/>
      <point x="-100" y="39" type="line" smooth="yes"/>
      <point x="-108" y="35"/>
      <point x="-116" y="44"/>
      <point x="-110" y="51" type="curve" smooth="yes"/>
      <point x="-90" y="78" type="line"/>
      <point x="-78" y="68" type="line"/>
      <point x="-98" y="41" type="line" smooth="yes"/>
      <point x="-103" y="34"/>
      <point x="-115" y="49"/>
      <point x="-108" y="53" type="curve" smooth="yes"/>
      <point x="97" y="169" type="line"/>
    </contour>
    <contour>
      <point x="262" y="549" type="line"/>
      <point x="180" y="435" type="line" smooth="yes"/>
      <point x="176" y="429"/>
      <point x="165" y="447"/>
      <point x="173" y="448" type="curve" smooth="yes"/>
      <point x="315" y="474" type="line"/>
      <point x="317" y="458" type="line"/>
      <point x="175" y="432" type="line" smooth="yes"/>
      <point x="168" y="431"/>
      <point x="163" y="439"/>
      <point x="168" y="445" type="curve" smooth="yes"/>
      <point x="250" y="559" type="line"/>
    </contour>
    <contour>
      <point x="556" y="547" type="line"/>
      <point x="357" y="428" type="line" smooth="yes"/>
      <point x="350" y="424"/>
      <point x="344" y="442"/>
      <point x="352" y="443" type="curve" smooth="yes"/>
      <point x="473" y="452" type="line"/>
      <point x="475" y="436" type="line"/>
      <point x="354" y="427" type="line" smooth="yes"/>
      <point x="345" y="426"/>
      <point x="342" y="438"/>
      <point x="349" y="442" type="curve" smooth="yes"/>
      <point x="548" y="561" type="line"/>
    </contour>
    <contour>
      <point x="312" y="184" type="line"/>
      <point x="85" y="44" type="line" smooth="yes"/>
      <point x="78" y="40"/>
      <point x="71" y="57"/>
      <point x="80" y="59" type="curve" smooth="yes"/>
      <point x="210" y="81" type="line"/>
      <point x="212" y="65" type="line"/>
      <point x="82" y="43" type="line" smooth="yes"/>
      <point x="74" y="42"/>
      <point x="69" y="53"/>
      <point x="77" y="58" type="curve" smooth="yes"/>
      <point x="304" y="198" type="line"/>
    </contour>
    <contour>
      <point x="413" y="372" type="line"/>
      <point x="207" y="243" type="line" smooth="yes"/>
      <point x="200" y="239"/>
      <point x="194" y="257"/>
      <point x="202" y="258" type="curve" smooth="yes"/>
      <point x="326" y="271" type="line"/>
      <point x="328" y="255" type="line"/>
      <point x="204" y="242" type="line" smooth="yes"/>
      <point x="195" y="241"/>
      <point x="192" y="252"/>
      <point x="199" y="257" type="curve" smooth="yes"/>
      <point x="405" y="386" type="line"/>
    </contour>
    <contour>
      <point x="245" y="356" type="line"/>
      <point x="44" y="243" type="line" smooth="yes"/>
      <point x="36" y="239"/>
      <point x="30" y="256"/>
      <point x="38" y="258" type="curve" smooth="yes"/>
      <point x="179" y="286" type="line"/>
      <point x="183" y="270" type="line"/>
      <point x="42" y="242" type="line" smooth="yes"/>
      <point x="33" y="240"/>
      <point x="28" y="253"/>
      <point x="36" y="257" type="curve" smooth="yes"/>
      <point x="237" y="370" type="line"/>
    </contour>
  </outline>
</glyph>
<glyph name="R" format="2">
  <advance width="455"/>
  <unicode hex="0052"/>
  <outline>
    <contour>
      <point x="-111" y="51" type="line"/>
      <point x="11" y="225" type="line" smooth="yes"/>
      <point x="11" y="225"/>
      <point x="11" y="225"/>
      <point x="11" y="225" type="curve" smooth="yes"/>
      <point x="167" y="445" type="line" smooth="yes"/>
      <point x="169" y="447"/>
      <point x="171" y="448"/>
      <point x="174" y="448" type="curve" smooth="yes"/>
      <point x="288" y="448" type="line"/>
      <point x="288" y="448"/>
      <point x="288" y="448"/>
      <point x="288" y="448" type="curve"/>
      <point x="367" y="448"/>
      <point x="386" y="397"/>
      <point x="335" y="324" type="curve" smooth="yes"/>
      <point x="335" y="324"/>
      <point x="335" y="324"/>
      <point x="335" y="324" type="curve" smooth="yes"/>
      <point x="291" y="263"/>
      <point x="220" y="219"/>
      <point x="158" y="212" type="curve" smooth="yes"/>
      <point x="158" y="212"/>
      <point x="157" y="212"/>
      <point x="157" y="212" type="curve" smooth="yes"/>
      <point x="18" y="212" type="line"/>
      <point x="18" y="228" type="line"/>
      <point x="157" y="228" type="line" smooth="yes"/>
      <point x="157" y="228"/>
      <point x="156" y="228"/>
      <point x="156" y="228" type="curve" smooth="yes"/>
      <point x="214" y="235"/>
      <point x="281" y="277"/>
      <point x="321" y="334" type="curve" smooth="yes"/>
      <point x="321" y="334"/>
      <point x="321" y="334"/>
      <point x="321" y="334" type="curve" smooth="yes"/>
      <point x="364" y="395"/>
      <point x="355" y="432"/>
      <point x="288" y="432" type="curve"/>
      <point x="288" y="432"/>
      <point x="288" y="432"/>
      <point x="288" y="432" type="curve"/>
      <point x="174" y="432" type="line" smooth="yes"/>
      <point x="171" y="432"/>
      <point x="182" y="437"/>
      <point x="181" y="435" type="curve" smooth="yes"/>
      <point x="25" y="215" type="line" smooth="yes"/>
      <point x="25" y="215"/>
      <point x="25" y="215"/>
      <point x="25" y="215" type="curve" smooth="yes"/>
      <point x="-97" y="41" type="line"/>
    </contour>
    <contour>
      <point x="165" y="220" type="line"/>
      <point x="156" y="46" type="line"/>
      <point x="140" y="46" type="line"/>
      <point x="149" y="220" type="line"/>
    </contour>
    <contour>
      <point x="223" y="326" type="line"/>
      <point x="22" y="213" type="line" smooth="yes"/>
      <point x="14" y="209"/>
      <point x="8" y="226"/>
      <point x="16" y="228" type="curve" smooth="yes"/>
      <point x="158" y="256" type="line"/>
      <point x="162" y="240" type="line"/>
      <point x="20" y="212" type="line" smooth="yes"/>
      <point x="11" y="210"/>
      <point x="6" y="223"/>
      <point x="14" y="227" type="curve" smooth="yes"/>
      <point x="215" y="340" type="line"/>
    </contour>
    <contour>
      <point x="56" y="65" type="line"/>
      <point x="-103" y="38" type="line" smooth="yes"/>
      <point x="-110" y="37"/>
      <point x="-115" y="45"/>
      <point x="-111" y="51" type="curve" smooth="yes"/>
      <point x="-92" y="78" type="line"/>
      <point x="-78" y="68" type="line"/>
      <point x="-97" y="41" type="line" smooth="yes"/>
      <point x="-102" y="36"/>
      <point x="-112" y="53"/>
      <point x="-105" y="54" type="curve" smooth="yes"/>
      <point x="54" y="81" type="line"/>
    </contour>
    <contour>
      <point x="262" y="549" type="line"/>
      <point x="181" y="435" type="line" smooth="yes"/>
      <point x="176" y="430"/>
      <point x="165" y="447"/>
      <point x="173" y="448" type="curve" smooth="yes"/>
      <point x="315" y="474" type="line"/>
      <point x="317" y="458" type="line"/>
      <point x="175" y="432" type="line" smooth="yes"/>
      <point x="168" y="431"/>
      <point x="163" y="439"/>
      <point x="167" y="445" type="curve" smooth="yes"/>
      <point x="248" y="559" type="line"/>
    </contour>
    <contour>
      <point x="224" y="241" type="line"/>
      <point x="160" y="213" type="line" smooth="yes"/>
      <point x="151" y="209"/>
      <point x="145" y="225"/>
      <point x="155" y="228" type="curve" smooth="yes"/>
      <point x="332" y="277" type="line"/>
      <point x="336" y="261" type="line"/>
      <point x="159" y="212" type="line" smooth="yes"/>
      <point x="150" y="210"/>
      <point x="145" y="223"/>
      <point x="154" y="227" type="curve" smooth="yes"/>
      <point x="218" y="255" type="line"/>
    </contour>
    <contour>
      <point x="345" y="65" type="line"/>
      <point x="149" y="38" type="line" smooth="yes"/>
      <point x="141" y="37"/>
      <point x="137" y="48"/>
      <point x="144" y="53" type="curve" smooth="yes"/>
      <point x="184" y="80" type="line"/>
      <point x="192" y="66" type="line"/>
      <point x="152" y="39" type="line" smooth="yes"/>
      <point x="145" y="35"/>
      <point x="139" y="53"/>
      <point x="147" y="54" type="curve" smooth="yes"/>
      <point x="343" y="81" type="line"/>
    </contour>
  </outline>
</glyph>
<glyph name="T" format="2">
  <advance width="389"/>
  <unicode hex="0054"/>
  <outline>
    <contour>
      <point x="389" y="430" type="line"/>
      <point x="256" y="430" type="line"/>
      <point x="256" y="430"/>
      <point x="256" y="430"/>
      <point x="256" y="430" type="curve"/>
      <point x="124" y="430" type="line"/>
      <point x="124" y="446" type="line"/>
      <point x="256" y="446" type="line"/>
      <point x="256" y="446"/>
      <point x="256" y="446"/>
      <point x="256" y="446" type="curve"/>
      <point x="389" y="446" type="line"/>
    </contour>
    <contour>
      <point x="263" y="433" type="line"/>
      <point x="-14" y="41" type="line"/>
      <point x="-28" y="51" type="line"/>
      <point x="249" y="443" type="line"/>
    </contour>
    <contour>
      <point x="140" y="65" type="line"/>
      <point x="-20" y="38" type="line" smooth="yes"/>
      <point x="-27" y="37"/>
      <point x="-32" y="45"/>
      <point x="-27" y="51" type="curve" smooth="yes"/>
      <point x="-6" y="78" type="line"/>
      <point x="6" y="68" type="line"/>
      <point x="-15" y="41" type="line" smooth="yes"/>
      <point x="-19" y="35"/>
      <point x="-30" y="53"/>
      <point x="-22" y="54" type="curve" smooth="yes"/>
      <point x="138" y="81" type="line"/>
    </contour>
    <contour>
      <point x="590" y="547" type="line"/>
      <point x="393" y="431" type="line" smooth="yes"/>
      <point x="386" y="427"/>
      <point x="380" y="446"/>
      <point x="389" y="446" type="curve" smooth="yes"/>
      <point x="508" y="452" type="line"/>
      <point x="508" y="436" type="line"/>
      <point x="389" y="430" type="line" smooth="yes"/>
      <point x="381" y="430"/>
      <point x="378" y="441"/>
      <point x="385" y="445" type="curve" smooth="yes"/>
      <point x="582" y="561" type="line"/>
    </contour>
    <contour>
      <point x="157" y="436" type="line"/>
      <point x="126" y="430" type="line" smooth="yes"/>
      <point x="118" y="429"/>
      <point x="113" y="438"/>
      <point x="118" y="443" type="curve" smooth="yes"/>
      <point x="227" y="559" type="line"/>
      <point x="239" y="549" type="line"/>
      <point x="130" y="433" type="line" smooth="yes"/>
      <point x="125" y="427"/>
      <point x="115" y="444"/>
      <point x="122" y="446" type="curve" smooth="yes"/>
      <point x="153" y="452" type="line"/>
    </contour>
    <contour>
      <point x="298" y="457" type="line"/>
      <point x="261" y="431" type="line" smooth="yes"/>
      <point x="254" y="427"/>
      <point x="246" y="444"/>
      <point x="255" y="446" type="curve" smooth="yes"/>
      <point x="398" y="472" type="line"/>
      <point x="400" y="456" type="line"/>
      <point x="257" y="430" type="line" smooth="yes"/>
      <point x="249" y="429"/>
      <point x="244" y="440"/>
      <point x="251" y="445" type="curve" smooth="yes"/>
      <point x="288" y="471" type="line"/>
    </contour>
  </outline>
</glyph>
<glyph name="Y" format="2">
  <advance width="441"/>
  <unicode hex="0059"/>
  <outline>
    <contour>
      <point x="160" y="438" type="line"/>
      <point x="149" y="397"/>
      <point x="137" y="331"/>
      <point x="115" y="188" type="curve" smooth="yes"/>
      <point x="114" y="181"/>
      <point x="96" y="191"/>
      <point x="102" y="195" type="curve" smooth="yes"/>
      <point x="284" y="339"/>
      <point x="368" y="406"/>
      <point x="413" y="446" type="curve"/>
      <point x="423" y="434" type="line"/>
      <point x="378" y="394"/>
      <point x="294" y="327"/>
      <point x="112" y="183" type="curve" smooth="yes"/>
      <point x="106" y="178"/>
      <point x="98" y="183"/>
      <point x="99" y="190" type="curve" smooth="yes"/>
      <point x="121" y="335"/>
      <point x="133" y="401"/>
      <point x="144" y="442" type="curve"/>
    </contour>
    <contour>
      <point x="299" y="348" type="line"/>
      <point x="112" y="183" type="line" smooth="yes"/>
      <point x="112" y="183"/>
      <point x="114" y="185"/>
      <point x="114" y="184" type="curve" smooth="yes"/>
      <point x="13" y="41" type="line"/>
      <point x="-1" y="51" type="line"/>
      <point x="100" y="194" type="line" smooth="yes"/>
      <point x="101" y="194"/>
      <point x="101" y="195"/>
      <point x="102" y="195" type="curve" smooth="yes"/>
      <point x="289" y="360" type="line"/>
    </contour>
    <contour>
      <point x="167" y="65" type="line"/>
      <point x="7" y="38" type="line" smooth="yes"/>
      <point x="0" y="37"/>
      <point x="-5" y="45"/>
      <point x="0" y="51" type="curve" smooth="yes"/>
      <point x="21" y="78" type="line"/>
      <point x="33" y="68" type="line"/>
      <point x="12" y="41" type="line" smooth="yes"/>
      <point x="8" y="35"/>
      <point x="-3" y="53"/>
      <point x="5" y="54" type="curve" smooth="yes"/>
      <point x="165" y="81" type="line"/>
    </contour>
    <contour>
      <point x="219" y="550" type="line"/>
      <point x="159" y="436" type="line" smooth="yes"/>
      <point x="155" y="429"/>
      <point x="141" y="443"/>
      <point x="148" y="447" type="curve" smooth="yes"/>
      <point x="358" y="561" type="line"/>
      <point x="366" y="547" type="line"/>
      <point x="156" y="433" type="line" smooth="yes"/>
      <point x="149" y="429"/>
      <point x="141" y="437"/>
      <point x="145" y="444" type="curve" smooth="yes"/>
      <point x="205" y="558" type="line"/>
    </contour>
    <contour>
      <point x="520" y="549" type="line"/>
      <point x="424" y="435" type="line" smooth="yes"/>
      <point x="419" y="428"/>
      <point x="407" y="444"/>
      <point x="415" y="447" type="curve" smooth="yes"/>
      <point x="656" y="561" type="line"/>
      <point x="662" y="547" type="line"/>
      <point x="421" y="433" type="line" smooth="yes"/>
      <point x="414" y="429"/>
      <point x="406" y="439"/>
      <point x="412" y="445" type="curve" smooth="yes"/>
      <point x="508" y="559" type="line"/>
    </contour>
    <contour>
      <point x="181" y="250" type="line"/>
      <point x="113" y="183" type="line" smooth="yes"/>
      <point x="106" y="177"/>
      <point x="96" y="193"/>
      <point x="104" y="196" type="curve" smooth="yes"/>
      <point x="273" y="263" type="line"/>
      <point x="279" y="249" type="line"/>
      <point x="110" y="182" type="line" smooth="yes"/>
      <point x="102" y="178"/>
      <point x="95" y="189"/>
      <point x="101" y="195" type="curve" smooth="yes"/>
      <point x="169" y="262" type="line"/>
    </contour>
  </outline>
</glyph>
<glyph name="bracketright" format="2">
  <advance width="323"/>
  <unicode hex="005D"/>
  <outline>
    <contour>
      <point x="301" y="646" type="line"/>
      <point x="254" y="576"/>
      <point x="256" y="532"/>
      <point x="311" y="524" type="curve" smooth="yes"/>
      <point x="317" y="523"/>
      <point x="320" y="516"/>
      <point x="317" y="511" type="curve" smooth="yes"/>
      <point x="-68" y="-34" type="line" smooth="yes"/>
      <point x="-70" y="-36"/>
      <point x="-72" y="-37"/>
      <point x="-75" y="-37" type="curve" smooth="yes"/>
      <point x="-193" y="-37"/>
      <point x="-189" y="-29"/>
      <point x="-189" y="-22" type="curve"/>
      <point x="-173" y="-22" type="line"/>
      <point x="-173" y="-22"/>
      <point x="-80" y="-21"/>
      <point x="-75" y="-21" type="curve" smooth="yes"/>
      <point x="-72" y="-21"/>
      <point x="-83" y="-27"/>
      <point x="-82" y="-24" type="curve" smooth="yes"/>
      <point x="303" y="521" type="line" smooth="yes"/>
      <point x="307" y="525"/>
      <point x="315" y="507"/>
      <point x="309" y="508" type="curve" smooth="yes"/>
      <point x="244" y="518"/>
      <point x="232" y="572"/>
      <point x="287" y="654" type="curve"/>
    </contour>
    <contour>
      <point x="82" y="-15" type="line"/>
      <point x="-74" y="-37" type="line" smooth="yes"/>
      <point x="-81" y="-38"/>
      <point x="-86" y="-29"/>
      <point x="-81" y="-24" type="curve" smooth="yes"/>
      <point x="18" y="91" type="line"/>
      <point x="30" y="81" type="line"/>
      <point x="-69" y="-34" type="line" smooth="yes"/>
      <point x="-74" y="-40"/>
      <point x="-83" y="-22"/>
      <point x="-76" y="-21" type="curve" smooth="yes"/>
      <point x="80" y="1" type="line"/>
    </contour>
    <contour>
      <point x="352" y="537" type="line"/>
      <point x="315" y="510" type="line" smooth="yes"/>
      <point x="307" y="504"/>
      <point x="297" y="518"/>
      <point x="306" y="523" type="curve" smooth="yes"/>
      <point x="532" y="643" type="line"/>
      <point x="540" y="629" type="line"/>
      <point x="314" y="509" type="line" smooth="yes"/>
      <point x="305" y="504"/>
      <point x="297" y="517"/>
      <point x="305" y="522" type="curve" smooth="yes"/>
      <point x="342" y="549" type="line"/>
    </contour>
  </outline>
</glyph>
<glyph name="asciicircum" format="2">
  <advance width="396"/>
  <unicode hex="005E"/>
  <outline>
    <contour>
      <point x="12" y="238" type="line"/>
      <point x="231" y="410" type="line" smooth="yes"/>
      <point x="237" y="415"/>
      <point x="245" y="410"/>
      <point x="244" y="403" type="curve" smooth="yes"/>
      <point x="220" y="231" type="line"/>
      <point x="204" y="233" type="line"/>
      <point x="228" y="405" type="line" smooth="yes"/>
      <point x="229" y="412"/>
      <point x="247" y="402"/>
      <point x="241" y="398" type="curve" smooth="yes"/>
      <point x="22" y="226" type="line"/>
    </contour>
    <contour>
      <point x="135" y="251" type="line"/>
      <point x="19" y="224" type="line" smooth="yes"/>
      <point x="12" y="223"/>
      <point x="7" y="229"/>
      <point x="10" y="235" type="curve" smooth="yes"/>
      <point x="23" y="262" type="line"/>
      <point x="37" y="256" type="line"/>
      <point x="24" y="229" type="line" smooth="yes"/>
      <point x="21" y="222"/>
      <point x="9" y="238"/>
      <point x="15" y="240" type="curve" smooth="yes"/>
      <point x="131" y="267" type="line"/>
    </contour>
    <contour>
      <point x="379" y="251" type="line"/>
      <point x="213" y="224" type="line" smooth="yes"/>
      <point x="204" y="223"/>
      <point x="200" y="236"/>
      <point x="209" y="239" type="curve" smooth="yes"/>
      <point x="272" y="266" type="line"/>
      <point x="278" y="252" type="line"/>
      <point x="215" y="225" type="line" smooth="yes"/>
      <point x="206" y="221"/>
      <point x="201" y="238"/>
      <point x="211" y="240" type="curve" smooth="yes"/>
      <point x="377" y="267" type="line"/>
    </contour>
    <contour>
      <point x="424" y="558" type="line"/>
      <point x="241" y="398" type="line" smooth="yes"/>
      <point x="237" y="394"/>
      <point x="232" y="414"/>
      <point x="238" y="412" type="curve" smooth="yes"/>
      <point x="295" y="394" type="line"/>
      <point x="291" y="378" type="line"/>
      <point x="234" y="396" type="line" smooth="yes"/>
      <point x="228" y="398"/>
      <point x="226" y="406"/>
      <point x="231" y="410" type="curve" smooth="yes"/>
      <point x="414" y="570" type="line"/>
    </contour>
  </outline>
</glyph>
<glyph name="asciitilde" format="2">
  <advance width="451"/>
  <unicode hex="007E"/>
  <outline>
    <contour>
      <point x="-59" y="172" type="line"/>
      <point x="-7" y="237"/>
      <point x="46" y="268"/>
      <point x="91" y="268" type="curve"/>
      <point x="91" y="268"/>
      <point x="91" y="268"/>
      <point x="91" y="268" type="curve"/>
      <point x="128" y="268"/>
      <point x="134" y="242"/>
      <point x="138" y="215" type="curve" smooth="yes"/>
      <point x="138" y="215"/>
      <point x="138" y="216"/>
      <point x="138" y="215" type="curve" smooth="yes"/>
      <point x="141" y="197"/>
      <point x="143" y="179"/>
      <point x="170" y="179" type="curve"/>
      <point x="170" y="179"/>
      <point x="170" y="179"/>
      <point x="170" y="179" type="curve"/>
      <point x="210" y="179"/>
      <point x="260" y="211"/>
      <point x="308" y="269" type="curve"/>
      <point x="320" y="259" type="line"/>
      <point x="268" y="195"/>
      <point x="214" y="163"/>
      <point x="170" y="163" type="curve"/>
      <point x="170" y="163"/>
      <point x="170" y="163"/>
      <point x="170" y="163" type="curve"/>
      <point x="133" y="163"/>
      <point x="127" y="187"/>
      <point x="122" y="213" type="curve" smooth="yes"/>
      <point x="122" y="213"/>
      <point x="122" y="213"/>
      <point x="122" y="213" type="curve" smooth="yes"/>
      <point x="120" y="232"/>
      <point x="118" y="252"/>
      <point x="91" y="252" type="curve"/>
      <point x="91" y="252"/>
      <point x="91" y="252"/>
      <point x="91" y="252" type="curve"/>
      <point x="50" y="252"/>
      <point x="1" y="221"/>
      <point x="-47" y="162" type="curve"/>
    </contour>
    <contour>
      <point x="75" y="186" type="line"/>
      <point x="-51" y="159" type="line" smooth="yes"/>
      <point x="-60" y="157"/>
      <point x="-65" y="170"/>
      <point x="-57" y="174" type="curve" smooth="yes"/>
      <point x="-5" y="201" type="line"/>
      <point x="3" y="187" type="line"/>
      <point x="-49" y="160" type="line" smooth="yes"/>
      <point x="-58" y="156"/>
      <point x="-64" y="173"/>
      <point x="-55" y="175" type="curve" smooth="yes"/>
      <point x="71" y="202" type="line"/>
    </contour>
    <contour>
      <point x="435" y="373" type="line"/>
      <point x="320" y="258" type="line" smooth="yes"/>
      <point x="313" y="252"/>
      <point x="302" y="266"/>
      <point x="310" y="271" type="curve" smooth="yes"/>
      <point x="500" y="386" type="line"/>
      <point x="508" y="372" type="line"/>
      <point x="318" y="257" type="line" smooth="yes"/>
      <point x="310" y="252"/>
      <point x="302" y="263"/>
      <point x="308" y="270" type="curve" smooth="yes"/>
      <point x="423" y="385" type="line"/>
    </contour>
  </outline>
</glyph>
<glyph name="sterling" format="2">
  <advance width="400"/>
  <unicode hex="00A3"/>
  <outline>
    <contour>
      <point x="105" y="45" type="line"/>
      <point x="63" y="41"/>
      <point x="9" y="40"/>
      <point x="-71" y="40" type="curve"/>
      <point x="-71" y="40"/>
      <point x="-71" y="40"/>
      <point x="-71" y="40" type="curve"/>
      <point x="-128" y="40" type="line" smooth="yes"/>
      <point x="-138" y="40"/>
      <point x="-139" y="54"/>
      <point x="-129" y="56" type="curve" smooth="yes"/>
      <point x="-83" y="63"/>
      <point x="-46" y="80"/>
      <point x="0" y="146" type="curve" smooth="yes"/>
      <point x="0" y="146"/>
      <point x="0" y="146"/>
      <point x="0" y="146" type="curve" smooth="yes"/>
      <point x="20" y="173"/>
      <point x="37" y="207"/>
      <point x="54" y="241" type="curve"/>
      <point x="54" y="241"/>
      <point x="54" y="241"/>
      <point x="54" y="241" type="curve"/>
      <point x="71" y="277"/>
      <point x="89" y="312"/>
      <point x="112" y="343" type="curve" smooth="yes"/>
      <point x="112" y="343"/>
      <point x="111" y="343"/>
      <point x="111" y="343" type="curve" smooth="yes"/>
      <point x="166" y="420"/>
      <point x="248" y="457"/>
      <point x="318" y="456" type="curve" smooth="yes"/>
      <point x="318" y="456"/>
      <point x="318" y="456"/>
      <point x="318" y="456" type="curve" smooth="yes"/>
      <point x="339" y="456"/>
      <point x="351" y="456"/>
      <point x="375" y="443" type="curve"/>
      <point x="367" y="429" type="line"/>
      <point x="347" y="440"/>
      <point x="337" y="440"/>
      <point x="318" y="440" type="curve" smooth="yes"/>
      <point x="318" y="440"/>
      <point x="318" y="440"/>
      <point x="318" y="440" type="curve" smooth="yes"/>
      <point x="252" y="441"/>
      <point x="176" y="406"/>
      <point x="125" y="333" type="curve" smooth="yes"/>
      <point x="125" y="333"/>
      <point x="124" y="333"/>
      <point x="124" y="333" type="curve" smooth="yes"/>
      <point x="103" y="304"/>
      <point x="85" y="269"/>
      <point x="68" y="235" type="curve"/>
      <point x="68" y="235"/>
      <point x="68" y="235"/>
      <point x="68" y="235" type="curve"/>
      <point x="51" y="199"/>
      <point x="34" y="165"/>
      <point x="14" y="136" type="curve" smooth="yes"/>
      <point x="14" y="136"/>
      <point x="14" y="136"/>
      <point x="14" y="136" type="curve" smooth="yes"/>
      <point x="-36" y="66"/>
      <point x="-77" y="47"/>
      <point x="-127" y="40" type="curve" smooth="yes"/>
      <point x="-137" y="39"/>
      <point x="-138" y="56"/>
      <point x="-128" y="56" type="curve" smooth="yes"/>
      <point x="-71" y="56" type="line"/>
      <point x="-71" y="56"/>
      <point x="-71" y="56"/>
      <point x="-71" y="56" type="curve"/>
      <point x="9" y="56"/>
      <point x="61" y="57"/>
      <point x="103" y="61" type="curve"/>
    </contour>
    <contour>
      <point x="0" y="246" type="line"/>
      <point x="61" y="246" type="line"/>
      <point x="61" y="246"/>
      <point x="61" y="246"/>
      <point x="61" y="246" type="curve"/>
      <point x="213" y="246" type="line"/>
      <point x="213" y="230" type="line"/>
      <point x="61" y="230" type="line"/>
      <point x="61" y="230"/>
      <point x="61" y="230"/>
      <point x="61" y="230" type="curve"/>
      <point x="0" y="230" type="line"/>
    </contour>
    <contour>
      <point x="566" y="537" type="line"/>
      <point x="375" y="429" type="line" smooth="yes"/>
      <point x="368" y="425"/>
      <point x="364" y="445"/>
      <point x="372" y="444" type="curve" smooth="yes"/>
      <point x="480" y="435" type="line"/>
      <point x="478" y="419" type="line"/>
      <point x="370" y="428" type="line" smooth="yes"/>
      <point x="362" y="429"/>
      <point x="360" y="439"/>
      <point x="367" y="443" type="curve" smooth="yes"/>
      <point x="558" y="551" type="line"/>
    </contour>
    <contour>
      <point x="336" y="187" type="line"/>
      <point x="108" y="46" type="line" smooth="yes"/>
      <point x="101" y="42"/>
      <point x="94" y="60"/>
      <point x="103" y="61" type="curve" smooth="yes"/>
      <point x="232" y="81" type="line"/>
      <point x="234" y="65" type="line"/>
      <point x="105" y="45" type="line" smooth="yes"/>
      <point x="97" y="44"/>
      <point x="92" y="55"/>
      <point x="100" y="60" type="curve" smooth="yes"/>
      <point x="328" y="201" type="line"/>
    </contour>
    <contour>
      <point x="-79" y="66" type="line"/>
      <point x="-124" y="41" type="line" smooth="yes"/>
      <point x="-132" y="37"/>
      <point x="-140" y="47"/>
      <point x="-134" y="54" type="curve" smooth="yes"/>
      <point x="-25" y="169" type="line"/>
      <point x="-13" y="157" type="line"/>
      <point x="-122" y="42" type="line" smooth="yes"/>
      <point x="-128" y="36"/>
      <point x="-140" y="51"/>
      <point x="-132" y="55" type="curve" smooth="yes"/>
      <point x="-87" y="80" type="line"/>
    </contour>
    <contour>
      <point x="60" y="262" type="line"/>
      <point x="4" y="231" type="line" smooth="yes"/>
      <point x="-4" y="226"/>
      <point x="-12" y="237"/>
      <point x="-6" y="244" type="curve" smooth="yes"/>
      <point x="106" y="354" type="line"/>
      <point x="118" y="342" type="line"/>
      <point x="6" y="232" type="line" smooth="yes"/>
      <point x="-1" y="226"/>
      <point x="-12" y="240"/>
      <point x="-4" y="245" type="curve" smooth="yes"/>
      <point x="52" y="276" type="line"/>
    </contour>
    <contour>
      <point x="410" y="341" type="line"/>
      <point x="217" y="231" type="line" smooth="yes"/>
      <point x="209" y="226"/>
      <point x="202" y="244"/>
      <point x="211" y="246" type="curve" smooth="yes"/>
      <point x="341" y="277" type="line"/>
      <point x="345" y="261" type="line"/>
      <point x="215" y="230" type="line" smooth="yes"/>
      <point x="206" y="228"/>
      <point x="201" y="240"/>
      <point x="209" y="245" type="curve" smooth="yes"/>
      <point x="402" y="355" type="line"/>
    </contour>
    <contour>
      <point x="258" y="341" type="line"/>
      <point x="65" y="231" type="line" smooth="yes"/>
      <point x="56" y="226"/>
      <point x="48" y="239"/>
      <point x="57" y="245" type="curve" smooth="yes"/>
      <point x="105" y="276" type="line"/>
      <point x="113" y="262" type="line"/>
      <point x="65" y="231" type="line" smooth="yes"/>
      <point x="57" y="226"/>
      <point x="48" y="240"/>
      <point x="57" y="245" type="curve" smooth="yes"/>
      <point x="250" y="355" type="line"/>
    </contour>
    <contour>
      <point x="155" y="343" type="line"/>
      <point x="67" y="233" type="line" smooth="yes"/>
      <point x="63" y="227"/>
      <point x="52" y="244"/>
      <point x="59" y="246" type="curve" smooth="yes"/>
      <point x="212" y="277" type="line"/>
      <point x="216" y="261" type="line"/>
      <point x="63" y="230" type="line" smooth="yes"/>
      <point x="55" y="229"/>
      <point x="50" y="237"/>
      <point x="55" y="243" type="curve" smooth="yes"/>
      <point x="143" y="353" type="line"/>
    </contour>
    <contour>
      <point x="-128" y="56" type="line"/>
      <point x="-80" y="56"/>
      <point x="9" y="89"/>
      <point x="131" y="170" type="curve"/>
      <point x="139" y="156" type="line"/>
      <point x="13" y="73"/>
      <point x="-78" y="40"/>
      <point x="-128" y="40" type="curve"/>
    </contour>
  </outline>
</glyph>
<glyph name="currency" format="2">
  <advance width="456"/>
  <unicode hex="00A4"/>
  <outline>
    <contour>
      <point x="308" y="333" type="curve" smooth="yes"/>
      <point x="308" y="333"/>
      <point x="308" y="333"/>
      <point x="308" y="333" type="curve" smooth="yes"/>
      <point x="321" y="289"/>
      <point x="259" y="199"/>
      <point x="185" y="154" type="curve" smooth="yes"/>
      <point x="185" y="154"/>
      <point x="185" y="154"/>
      <point x="185" y="154" type="curve" smooth="yes"/>
      <point x="104" y="107"/>
      <point x="16" y="111"/>
      <point x="1" y="159" type="curve" smooth="yes"/>
      <point x="1" y="159"/>
      <point x="1" y="159"/>
      <point x="1" y="159" type="curve" smooth="yes"/>
      <point x="-12" y="203"/>
      <point x="50" y="293"/>
      <point x="125" y="338" type="curve" smooth="yes"/>
      <point x="125" y="338"/>
      <point x="125" y="338"/>
      <point x="125" y="338" type="curve" smooth="yes"/>
      <point x="204" y="385"/>
      <point x="293" y="380"/>
    </contour>
    <contour>
      <point x="119" y="393" type="line"/>
      <point x="137" y="333" type="line"/>
      <point x="121" y="329" type="line"/>
      <point x="103" y="389" type="line"/>
    </contour>
    <contour>
      <point x="296" y="338" type="line"/>
      <point x="398" y="398" type="line"/>
      <point x="406" y="384" type="line"/>
      <point x="304" y="324" type="line"/>
    </contour>
    <contour>
      <point x="170" y="456" type="line"/>
      <point x="117" y="386" type="line" smooth="yes"/>
      <point x="112" y="379"/>
      <point x="99" y="391"/>
      <point x="106" y="397" type="curve" smooth="yes"/>
      <point x="275" y="535" type="line"/>
      <point x="285" y="523" type="line"/>
      <point x="116" y="385" type="line" smooth="yes"/>
      <point x="109" y="379"/>
      <point x="99" y="388"/>
      <point x="105" y="396" type="curve" smooth="yes"/>
      <point x="158" y="466" type="line"/>
    </contour>
    <contour>
      <point x="575" y="523" type="line"/>
      <point x="407" y="385" type="line" smooth="yes"/>
      <point x="400" y="379"/>
      <point x="391" y="395"/>
      <point x="399" y="398" type="curve" smooth="yes"/>
      <point x="587" y="468" type="line"/>
      <point x="593" y="454" type="line"/>
      <point x="405" y="384" type="line" smooth="yes"/>
      <point x="396" y="380"/>
      <point x="390" y="391"/>
      <point x="397" y="397" type="curve" smooth="yes"/>
      <point x="565" y="535" type="line"/>
    </contour>
    <contour>
      <point x="189" y="389" type="line"/>
      <point x="135" y="326" type="line" smooth="yes"/>
      <point x="129" y="318"/>
      <point x="117" y="332"/>
      <point x="124" y="337" type="curve" smooth="yes"/>
      <point x="295" y="468" type="line"/>
      <point x="305" y="456" type="line"/>
      <point x="134" y="325" type="line" smooth="yes"/>
      <point x="126" y="319"/>
      <point x="117" y="329"/>
      <point x="123" y="336" type="curve" smooth="yes"/>
      <point x="177" y="399" type="line"/>
    </contour>
    <contour>
      <point x="460" y="455" type="line"/>
      <point x="305" y="325" type="line" smooth="yes"/>
      <point x="298" y="319"/>
      <point x="289" y="336"/>
      <point x="297" y="339" type="curve" smooth="yes"/>
      <point x="472" y="402" type="line"/>
      <point x="478" y="386" type="line"/>
      <point x="303" y="323" type="line" smooth="yes"/>
      <point x="294" y="320"/>
      <point x="288" y="331"/>
      <point x="295" y="337" type="curve" smooth="yes"/>
      <point x="450" y="467" type="line"/>
    </contour>
    <contour>
      <point x="292" y="329" type="curve" smooth="yes"/>
      <point x="281" y="366"/>
      <point x="197" y="362"/>
      <point x="133" y="324" type="curve" smooth="yes"/>
      <point x="133" y="324"/>
      <point x="133" y="324"/>
      <point x="133" y="324" type="curve" smooth="yes"/>
      <point x="68" y="285"/>
      <point x="6" y="201"/>
      <point x="17" y="163" type="curve" smooth="yes"/>
      <point x="17" y="163"/>
      <point x="17" y="163"/>
      <point x="17" y="163" type="curve" smooth="yes"/>
      <point x="28" y="125"/>
      <point x="112" y="130"/>
      <point x="177" y="168" type="curve" smooth="yes"/>
      <point x="177" y="168"/>
      <point x="177" y="168"/>
      <point x="177" y="168" type="curve" smooth="yes"/>
      <point x="241" y="207"/>
      <point x="303" y="291"/>
      <point x="292" y="329" type="curve" smooth="yes"/>
      <point x="292" y="329"/>
      <point x="292" y="329"/>
    </contour>
    <contour>
      <point x="190" y="99" type="line"/>
      <point x="173" y="159" type="line"/>
      <point x="189" y="163" type="line"/>
      <point x="206" y="103" type="line"/>
    </contour>
    <contour>
      <point x="13" y="154" type="line"/>
      <point x="-89" y="94" type="line"/>
      <point x="-97" y="108" type="line"/>
      <point x="5" y="168" type="line"/>
    </contour>
    <contour>
      <point x="390" y="165" type="line"/>
      <point x="201" y="94" type="line" smooth="yes"/>
      <point x="192" y="90"/>
      <point x="189" y="109"/>
      <point x="198" y="109" type="curve" smooth="yes"/>
      <point x="271" y="112" type="line"/>
      <point x="271" y="96" type="line"/>
      <point x="198" y="93" type="line" smooth="yes"/>
      <point x="189" y="93"/>
      <point x="187" y="105"/>
      <point x="195" y="108" type="curve" smooth="yes"/>
      <point x="384" y="179" type="line"/>
    </contour>
    <contour>
      <point x="-19" y="96" type="line"/>
      <point x="-93" y="93" type="line" smooth="yes"/>
      <point x="-99" y="93"/>
      <point x="-103" y="100"/>
      <point x="-99" y="106" type="curve" smooth="yes"/>
      <point x="-45" y="177" type="line"/>
      <point x="-33" y="167" type="line"/>
      <point x="-87" y="96" type="line" smooth="yes"/>
      <point x="-91" y="91"/>
      <point x="-100" y="109"/>
      <point x="-93" y="109" type="curve" smooth="yes"/>
      <point x="-19" y="112" type="line"/>
    </contour>
    <contour>
      <point x="371" y="232" type="line"/>
      <point x="184" y="154" type="line" smooth="yes"/>
      <point x="175" y="150"/>
      <point x="171" y="168"/>
      <point x="180" y="169" type="curve" smooth="yes"/>
      <point x="249" y="179" type="line"/>
      <point x="251" y="163" type="line"/>
      <point x="182" y="153" type="line" smooth="yes"/>
      <point x="173" y="152"/>
      <point x="169" y="165"/>
      <point x="178" y="168" type="curve" smooth="yes"/>
      <point x="365" y="246" type="line"/>
    </contour>
    <contour>
      <point x="96" y="164" type="line"/>
      <point x="10" y="153" type="line" smooth="yes"/>
      <point x="3" y="152"/>
      <point x="-2" y="161"/>
      <point x="3" y="166" type="curve" smooth="yes"/>
      <point x="70" y="244" type="line"/>
      <point x="82" y="234" type="line"/>
      <point x="15" y="156" type="line" smooth="yes"/>
      <point x="10" y="150"/>
      <point x="1" y="168"/>
      <point x="8" y="169" type="curve" smooth="yes"/>
      <point x="94" y="180" type="line"/>
    </contour>
  </outline>
</glyph>
<glyph name="brokenbar" format="2">
  <advance width="273"/>
  <unicode hex="00A6"/>
  <outline>
    <contour>
      <point x="241" y="484" type="line"/>
      <point x="113" y="303" type="line"/>
      <point x="99" y="313" type="line"/>
      <point x="227" y="494" type="line"/>
    </contour>
    <contour>
      <point x="-123" y="-2" type="line"/>
      <point x="5" y="179" type="line"/>
      <point x="19" y="169" type="line"/>
      <point x="-109" y="-12" type="line"/>
    </contour>
    <contour>
      <point x="25" y="12" type="line"/>
      <point x="-114" y="-15" type="line" smooth="yes"/>
      <point x="-123" y="-17"/>
      <point x="-128" y="-5"/>
      <point x="-120" y="0" type="curve" smooth="yes"/>
      <point x="-79" y="27" type="line"/>
      <point x="-71" y="13" type="line"/>
      <point x="-112" y="-14" type="line" smooth="yes"/>
      <point x="-119" y="-19"/>
      <point x="-126" y="-1"/>
      <point x="-118" y="1" type="curve" smooth="yes"/>
      <point x="21" y="28" type="line"/>
    </contour>
    <contour>
      <point x="343" y="599" type="line"/>
      <point x="240" y="484" type="line" smooth="yes"/>
      <point x="234" y="477"/>
      <point x="222" y="491"/>
      <point x="230" y="496" type="curve" smooth="yes"/>
      <point x="432" y="611" type="line"/>
      <point x="440" y="597" type="line"/>
      <point x="238" y="482" type="line" smooth="yes"/>
      <point x="230" y="478"/>
      <point x="222" y="488"/>
      <point x="228" y="494" type="curve" smooth="yes"/>
      <point x="331" y="609" type="line"/>
    </contour>
    <contour>
      <point x="248" y="327" type="line"/>
      <point x="108" y="300" type="line" smooth="yes"/>
      <point x="99" y="298"/>
      <point x="94" y="310"/>
      <point x="102" y="315" type="curve" smooth="yes"/>
      <point x="143" y="342" type="line"/>
      <point x="151" y="328" type="line"/>
      <point x="110" y="301" type="line" smooth="yes"/>
      <point x="103" y="297"/>
      <point x="96" y="314"/>
      <point x="104" y="316" type="curve" smooth="yes"/>
      <point x="244" y="343" type="line"/>
    </contour>
    <contour>
      <point x="121" y="284" type="line"/>
      <point x="18" y="169" type="line" smooth="yes"/>
      <point x="12" y="162"/>
      <point x="0" y="176"/>
      <point x="8" y="181" type="curve" smooth="yes"/>
      <point x="209" y="296" type="line"/>
      <point x="217" y="282" type="line"/>
      <point x="16" y="167" type="line" smooth="yes"/>
      <point x="8" y="163"/>
      <point x="0" y="173"/>
      <point x="6" y="179" type="curve" smooth="yes"/>
      <point x="109" y="294" type="line"/>
    </contour>
  </outline>
</glyph>
<glyph name="section" format="2">
  <advance width="357"/>
  <unicode hex="00A7"/>
  <outline>
    <contour>
      <point x="176" y="216" type="curve" smooth="yes"/>
      <point x="176" y="216"/>
      <point x="176" y="216"/>
      <point x="177" y="216" type="curve" smooth="yes"/>
      <point x="204" y="254"/>
      <point x="193" y="279"/>
      <point x="139" y="279" type="curve"/>
      <point x="139" y="279"/>
      <point x="139" y="279"/>
      <point x="139" y="279" type="curve"/>
      <point x="77" y="279"/>
      <point x="9" y="243"/>
      <point x="-21" y="200" type="curve" smooth="yes"/>
      <point x="-21" y="200"/>
      <point x="-21" y="200"/>
      <point x="-21" y="200" type="curve" smooth="yes"/>
      <point x="-48" y="162"/>
      <point x="-38" y="136"/>
      <point x="16" y="136" type="curve"/>
      <point x="16" y="136"/>
      <point x="16" y="136"/>
      <point x="16" y="136" type="curve"/>
      <point x="78" y="136"/>
      <point x="146" y="172"/>
    </contour>
    <contour>
      <point x="320" y="433" type="line"/>
      <point x="306" y="438"/>
      <point x="291" y="441"/>
      <point x="274" y="441" type="curve"/>
      <point x="274" y="441"/>
      <point x="274" y="441"/>
      <point x="274" y="441" type="curve"/>
      <point x="213" y="441"/>
      <point x="152" y="413"/>
      <point x="124" y="372" type="curve" smooth="yes"/>
      <point x="124" y="372"/>
      <point x="123" y="372"/>
      <point x="123" y="372" type="curve" smooth="yes"/>
      <point x="97" y="337"/>
      <point x="126" y="324"/>
      <point x="154" y="309" type="curve" smooth="yes"/>
      <point x="154" y="309"/>
      <point x="154" y="309"/>
      <point x="154" y="309" type="curve" smooth="yes"/>
      <point x="192" y="288"/>
      <point x="231" y="266"/>
      <point x="190" y="206" type="curve"/>
      <point x="176" y="216" type="line"/>
      <point x="211" y="264"/>
      <point x="178" y="278"/>
      <point x="146" y="295" type="curve" smooth="yes"/>
      <point x="146" y="295"/>
      <point x="146" y="295"/>
      <point x="146" y="295" type="curve" smooth="yes"/>
      <point x="110" y="314"/>
      <point x="77" y="336"/>
      <point x="111" y="382" type="curve" smooth="yes"/>
      <point x="111" y="382"/>
      <point x="110" y="382"/>
      <point x="110" y="382" type="curve" smooth="yes"/>
      <point x="142" y="427"/>
      <point x="207" y="457"/>
      <point x="274" y="457" type="curve"/>
      <point x="274" y="457"/>
      <point x="274" y="457"/>
      <point x="274" y="457" type="curve"/>
      <point x="293" y="457"/>
      <point x="310" y="454"/>
      <point x="326" y="447" type="curve"/>
    </contour>
    <contour>
      <point x="190" y="206" type="curve" smooth="yes"/>
      <point x="156" y="158"/>
      <point x="84" y="120"/>
      <point x="16" y="120" type="curve"/>
      <point x="16" y="120"/>
      <point x="16" y="120"/>
      <point x="16" y="120" type="curve"/>
      <point x="-52" y="120"/>
      <point x="-68" y="162"/>
      <point x="-35" y="210" type="curve" smooth="yes"/>
      <point x="-35" y="210"/>
      <point x="-35" y="210"/>
      <point x="-35" y="210" type="curve" smooth="yes"/>
      <point x="-1" y="257"/>
      <point x="71" y="295"/>
      <point x="139" y="295" type="curve"/>
      <point x="139" y="295"/>
      <point x="139" y="295"/>
      <point x="139" y="295" type="curve"/>
      <point x="207" y="295"/>
      <point x="224" y="254"/>
      <point x="189" y="206" type="curve" smooth="yes"/>
      <point x="189" y="206"/>
      <point x="190" y="206"/>
    </contour>
    <contour>
      <point x="-21" y="200" type="line"/>
      <point x="-56" y="151"/>
      <point x="-24" y="134"/>
      <point x="8" y="117" type="curve" smooth="yes"/>
      <point x="8" y="117"/>
      <point x="8" y="117"/>
      <point x="8" y="117" type="curve" smooth="yes"/>
      <point x="47" y="97"/>
      <point x="84" y="77"/>
      <point x="53" y="31" type="curve" smooth="yes"/>
      <point x="53" y="31"/>
      <point x="53" y="31"/>
      <point x="53" y="31" type="curve" smooth="yes"/>
      <point x="22" y="-11"/>
      <point x="-47" y="-42"/>
      <point x="-117" y="-42" type="curve"/>
      <point x="-117" y="-42"/>
      <point x="-117" y="-42"/>
      <point x="-117" y="-42" type="curve"/>
      <point x="-138" y="-42"/>
      <point x="-158" y="-39"/>
      <point x="-177" y="-31" type="curve"/>
      <point x="-171" y="-17" type="line"/>
      <point x="-154" y="-23"/>
      <point x="-136" y="-26"/>
      <point x="-117" y="-26" type="curve"/>
      <point x="-117" y="-26"/>
      <point x="-117" y="-26"/>
      <point x="-117" y="-26" type="curve"/>
      <point x="-53" y="-26"/>
      <point x="12" y="1"/>
      <point x="39" y="41" type="curve" smooth="yes"/>
      <point x="39" y="41"/>
      <point x="39" y="41"/>
      <point x="39" y="41" type="curve" smooth="yes"/>
      <point x="64" y="75"/>
      <point x="30" y="87"/>
      <point x="0" y="103" type="curve" smooth="yes"/>
      <point x="0" y="103"/>
      <point x="0" y="103"/>
      <point x="0" y="103" type="curve" smooth="yes"/>
      <point x="-38" y="124"/>
      <point x="-76" y="149"/>
      <point x="-35" y="210" type="curve"/>
    </contour>
    <contour>
      <point x="517" y="540" type="line"/>
      <point x="327" y="433" type="line" smooth="yes"/>
      <point x="320" y="429"/>
      <point x="315" y="448"/>
      <point x="323" y="448" type="curve" smooth="yes"/>
      <point x="439" y="450" type="line"/>
      <point x="439" y="434" type="line"/>
      <point x="323" y="432" type="line" smooth="yes"/>
      <point x="315" y="432"/>
      <point x="312" y="443"/>
      <point x="319" y="447" type="curve" smooth="yes"/>
      <point x="509" y="554" type="line"/>
    </contour>
    <contour>
      <point x="-118" y="3" type="line"/>
      <point x="-170" y="-31" type="line" smooth="yes"/>
      <point x="-177" y="-36"/>
      <point x="-186" y="-26"/>
      <point x="-180" y="-19" type="curve" smooth="yes"/>
      <point x="-54" y="121" type="line"/>
      <point x="-42" y="111" type="line"/>
      <point x="-168" y="-29" type="line" smooth="yes"/>
      <point x="-174" y="-36"/>
      <point x="-186" y="-22"/>
      <point x="-178" y="-17" type="curve" smooth="yes"/>
      <point x="-126" y="17" type="line"/>
    </contour>
    <contour>
      <point x="-21" y="200" type="line"/>
      <point x="-74" y="125"/>
      <point x="179" y="184"/>
      <point x="231" y="203" type="curve"/>
      <point x="237" y="189" type="line"/>
      <point x="164" y="161"/>
      <point x="-108" y="105"/>
      <point x="-35" y="210" type="curve"/>
    </contour>
    <contour>
      <point x="176" y="216" type="line"/>
      <point x="233" y="295"/>
      <point x="214" y="374"/>
      <point x="164" y="353" type="curve"/>
      <point x="158" y="367" type="line"/>
      <point x="220" y="394"/>
      <point x="261" y="306"/>
      <point x="190" y="206" type="curve"/>
    </contour>
  </outline>
</glyph>
<glyph name="dieresis" format="2">
  <advance width="409"/>
  <unicode hex="00A8"/>
  <outline>
    <contour>
      <point x="323" y="604" type="line"/>
      <point x="219" y="477" type="line" smooth="yes"/>
      <point x="215" y="471"/>
      <point x="205" y="489"/>
      <point x="212" y="490" type="curve" smooth="yes"/>
      <point x="349" y="503" type="line"/>
      <point x="351" y="487" type="line"/>
      <point x="214" y="474" type="line" smooth="yes"/>
      <point x="207" y="473"/>
      <point x="202" y="482"/>
      <point x="207" y="487" type="curve" smooth="yes"/>
      <point x="311" y="614" type="line"/>
    </contour>
    <contour>
      <point x="240" y="488" type="line"/>
      <point x="217" y="475" type="line" smooth="yes"/>
      <point x="208" y="470"/>
      <point x="200" y="484"/>
      <point x="209" y="489" type="curve" smooth="yes"/>
      <point x="427" y="616" type="line"/>
      <point x="435" y="602" type="line"/>
      <point x="217" y="475" type="line" smooth="yes"/>
      <point x="208" y="470"/>
      <point x="200" y="484"/>
      <point x="209" y="489" type="curve" smooth="yes"/>
      <point x="232" y="502" type="line"/>
    </contour>
    <contour>
      <point x="492" y="604" type="line"/>
      <point x="388" y="477" type="line" smooth="yes"/>
      <point x="384" y="471"/>
      <point x="374" y="489"/>
      <point x="381" y="490" type="curve" smooth="yes"/>
      <point x="519" y="503" type="line"/>
      <point x="521" y="487" type="line"/>
      <point x="383" y="474" type="line" smooth="yes"/>
      <point x="376" y="473"/>
      <point x="371" y="482"/>
      <point x="376" y="487" type="curve" smooth="yes"/>
      <point x="480" y="614" type="line"/>
    </contour>
    <contour>
      <point x="410" y="488" type="line"/>
      <point x="386" y="475" type="line" smooth="yes"/>
      <point x="377" y="470"/>
      <point x="369" y="484"/>
      <point x="378" y="489" type="curve" smooth="yes"/>
      <point x="596" y="616" type="line"/>
      <point x="604" y="602" type="line"/>
      <point x="386" y="475" type="line" smooth="yes"/>
      <point x="377" y="470"/>
      <point x="369" y="484"/>
      <point x="378" y="489" type="curve" smooth="yes"/>
      <point x="402" y="502" type="line"/>
    </contour>
  </outline>
</glyph>
<glyph name="logicalnot" format="2">
  <advance width="346"/>
  <unicode hex="00AC"/>
  <outline>
    <contour>
      <point x="17" y="281" type="line"/>
      <point x="218" y="281" type="line" smooth="yes"/>
      <point x="224" y="281"/>
      <point x="228" y="274"/>
      <point x="225" y="268" type="curve" smooth="yes"/>
      <point x="152" y="164" type="line"/>
      <point x="138" y="174" type="line"/>
      <point x="211" y="278" type="line" smooth="yes"/>
      <point x="215" y="283"/>
      <point x="224" y="265"/>
      <point x="218" y="265" type="curve" smooth="yes"/>
      <point x="17" y="265" type="line"/>
    </contour>
    <contour>
      <point x="67" y="292" type="line"/>
      <point x="21" y="266" type="line" smooth="yes"/>
      <point x="13" y="262"/>
      <point x="5" y="272"/>
      <point x="11" y="278" type="curve" smooth="yes"/>
      <point x="120" y="394" type="line"/>
      <point x="132" y="384" type="line"/>
      <point x="23" y="268" type="line" smooth="yes"/>
      <point x="17" y="261"/>
      <point x="5" y="275"/>
      <point x="13" y="280" type="curve" smooth="yes"/>
      <point x="59" y="306" type="line"/>
    </contour>
    <contour>
      <point x="282" y="188" type="line"/>
      <point x="147" y="161" type="line" smooth="yes"/>
      <point x="138" y="159"/>
      <point x="133" y="171"/>
      <point x="141" y="176" type="curve" smooth="yes"/>
      <point x="185" y="203" type="line"/>
      <point x="193" y="189" type="line"/>
      <point x="149" y="162" type="line" smooth="yes"/>
      <point x="142" y="158"/>
      <point x="135" y="175"/>
      <point x="143" y="177" type="curve" smooth="yes"/>
      <point x="278" y="204" type="line"/>
    </contour>
    <contour>
      <point x="265" y="292" type="line"/>
      <point x="222" y="266" type="line" smooth="yes"/>
      <point x="213" y="261"/>
      <point x="205" y="275"/>
      <point x="214" y="280" type="curve" smooth="yes"/>
      <point x="412" y="396" type="line"/>
      <point x="420" y="382" type="line"/>
      <point x="222" y="266" type="line" smooth="yes"/>
      <point x="213" y="261"/>
      <point x="205" y="274"/>
      <point x="214" y="280" type="curve" smooth="yes"/>
      <point x="257" y="306" type="line"/>
    </contour>
  </outline>
</glyph>
<glyph name="registered" format="2">
  <advance width="434"/>
  <unicode hex="00AE"/>
  <outline>
    <contour>
      <point x="154" y="294" type="line"/>
      <point x="256" y="437" type="line" smooth="yes"/>
      <point x="258" y="439"/>
      <point x="260" y="440"/>
      <point x="263" y="440" type="curve" smooth="yes"/>
      <point x="311" y="440" type="line"/>
      <point x="311" y="440"/>
      <point x="311" y="440"/>
      <point x="311" y="440" type="curve"/>
      <point x="351" y="440"/>
      <point x="361" y="416"/>
      <point x="339" y="383" type="curve" smooth="yes"/>
      <point x="339" y="382"/>
      <point x="339" y="382"/>
      <point x="339" y="382" type="curve" smooth="yes"/>
      <point x="318" y="353"/>
      <point x="282" y="335"/>
      <point x="251" y="335" type="curve"/>
      <point x="251" y="335"/>
      <point x="251" y="335"/>
      <point x="251" y="335" type="curve"/>
      <point x="199" y="335" type="line"/>
      <point x="199" y="351" type="line"/>
      <point x="251" y="351" type="line"/>
      <point x="251" y="351"/>
      <point x="251" y="351"/>
      <point x="251" y="351" type="curve"/>
      <point x="278" y="351"/>
      <point x="308" y="367"/>
      <point x="325" y="392" type="curve" smooth="yes"/>
      <point x="325" y="392"/>
      <point x="325" y="391"/>
      <point x="325" y="391" type="curve" smooth="yes"/>
      <point x="341" y="414"/>
      <point x="337" y="424"/>
      <point x="311" y="424" type="curve"/>
      <point x="311" y="424"/>
      <point x="311" y="424"/>
      <point x="311" y="424" type="curve"/>
      <point x="263" y="424" type="line" smooth="yes"/>
      <point x="260" y="424"/>
      <point x="271" y="429"/>
      <point x="270" y="427" type="curve" smooth="yes"/>
      <point x="168" y="284" type="line"/>
    </contour>
    <contour>
      <point x="273" y="343" type="line"/>
      <point x="269" y="288" type="line"/>
      <point x="253" y="290" type="line"/>
      <point x="257" y="345" type="line"/>
    </contour>
    <contour>
      <point x="235" y="287" type="line"/>
      <point x="162" y="281" type="line" smooth="yes"/>
      <point x="155" y="280"/>
      <point x="150" y="289"/>
      <point x="155" y="294" type="curve" smooth="yes"/>
      <point x="160" y="300" type="line"/>
      <point x="172" y="290" type="line"/>
      <point x="167" y="284" type="line" smooth="yes"/>
      <point x="163" y="278"/>
      <point x="153" y="296"/>
      <point x="160" y="297" type="curve" smooth="yes"/>
      <point x="233" y="303" type="line"/>
    </contour>
    <contour>
      <point x="359" y="287" type="line"/>
      <point x="261" y="281" type="line" smooth="yes"/>
      <point x="252" y="280"/>
      <point x="250" y="294"/>
      <point x="259" y="297" type="curve" smooth="yes"/>
      <point x="280" y="303" type="line"/>
      <point x="284" y="287" type="line"/>
      <point x="263" y="281" type="line" smooth="yes"/>
      <point x="254" y="279"/>
      <point x="251" y="296"/>
      <point x="261" y="297" type="curve" smooth="yes"/>
      <point x="359" y="303" type="line"/>
    </contour>
    <contour>
      <point x="305" y="392" type="line"/>
      <point x="203" y="336" type="line" smooth="yes"/>
      <point x="195" y="332"/>
      <point x="189" y="349"/>
      <point x="197" y="351" type="curve" smooth="yes"/>
      <point x="269" y="365" type="line"/>
      <point x="273" y="349" type="line"/>
      <point x="201" y="335" type="line" smooth="yes"/>
      <point x="192" y="333"/>
      <point x="187" y="346"/>
      <point x="195" y="350" type="curve" smooth="yes"/>
      <point x="297" y="406" type="line"/>
    </contour>
    <contour>
      <point x="300" y="350" type="line"/>
      <point x="268" y="337" type="line" smooth="yes"/>
      <point x="259" y="333"/>
      <point x="253" y="349"/>
      <point x="263" y="352" type="curve" smooth="yes"/>
      <point x="351" y="377" type="line"/>
      <point x="355" y="361" type="line"/>
      <point x="267" y="336" type="line" smooth="yes"/>
      <point x="257" y="334"/>
      <point x="253" y="348"/>
      <point x="262" y="351" type="curve" smooth="yes"/>
      <point x="294" y="364" type="line"/>
    </contour>
    <contour>
      <point x="311" y="485" type="line"/>
      <point x="270" y="427" type="line" smooth="yes"/>
      <point x="265" y="421"/>
      <point x="254" y="438"/>
      <point x="261" y="440" type="curve" smooth="yes"/>
      <point x="332" y="454" type="line"/>
      <point x="336" y="438" type="line"/>
      <point x="265" y="424" type="line" smooth="yes"/>
      <point x="257" y="423"/>
      <point x="252" y="431"/>
      <point x="256" y="437" type="curve" smooth="yes"/>
      <point x="297" y="495" type="line"/>
    </contour>
  </outline>
</glyph>
<glyph name="degree" format="2">
  <advance width="376"/>
  <unicode hex="00B0"/>
  <outline>
    <contour>
      <point x="94" y="225" type="curve"/>
      <point x="94" y="225"/>
      <point x="94" y="225"/>
      <point x="94" y="225" type="curve"/>
      <point x="157" y="225"/>
      <point x="235" y="273"/>
      <point x="283" y="341" type="curve" smooth="yes"/>
      <point x="284" y="341"/>
      <point x="283" y="341"/>
      <point x="283" y="341" type="curve" smooth="yes"/>
      <point x="328" y="404"/>
      <point x="320" y="446"/>
      <point x="261" y="446" type="curve"/>
      <point x="261" y="446"/>
      <point x="261" y="446"/>
      <point x="261" y="446" type="curve"/>
      <point x="197" y="446"/>
      <point x="121" y="399"/>
      <point x="74" y="331" type="curve" smooth="yes"/>
      <point x="74" y="331"/>
      <point x="74" y="331"/>
      <point x="74" y="331" type="curve" smooth="yes"/>
      <point x="28" y="268"/>
      <point x="34" y="225"/>
    </contour>
    <contour>
      <point x="94" y="209" type="curve"/>
      <point x="22" y="209"/>
      <point x="6" y="264"/>
      <point x="60" y="341" type="curve" smooth="yes"/>
      <point x="61" y="341"/>
      <point x="60" y="341"/>
      <point x="60" y="341" type="curve" smooth="yes"/>
      <point x="111" y="413"/>
      <point x="193" y="462"/>
      <point x="261" y="462" type="curve"/>
      <point x="261" y="462"/>
      <point x="261" y="462"/>
      <point x="261" y="462" type="curve"/>
      <point x="332" y="462"/>
      <point x="350" y="408"/>
      <point x="297" y="331" type="curve" smooth="yes"/>
      <point x="297" y="331"/>
      <point x="297" y="331"/>
      <point x="297" y="331" type="curve" smooth="yes"/>
      <point x="245" y="259"/>
      <point x="161" y="209"/>
      <point x="94" y="209" type="curve"/>
      <point x="94" y="209"/>
      <point x="94" y="209"/>
    </contour>
  </outline>
</glyph>
<glyph name="mu.math" format="2">
  <advance width="419"/>
  <unicode hex="00B5"/>
  <outline>
    <contour>
      <point x="-210" y="-62" type="line"/>
      <point x="67" y="329" type="line"/>
      <point x="81" y="319" type="line"/>
      <point x="-196" y="-72" type="line"/>
    </contour>
    <contour>
      <point x="101" y="51" type="line"/>
      <point x="297" y="329" type="line"/>
      <point x="311" y="319" type="line"/>
      <point x="115" y="41" type="line"/>
    </contour>
    <contour>
      <point x="-31" y="161" type="line"/>
      <point x="-82" y="90"/>
      <point x="-74" y="47"/>
      <point x="-13" y="47" type="curve"/>
      <point x="-13" y="47"/>
      <point x="-13" y="47"/>
      <point x="-13" y="47" type="curve"/>
      <point x="51" y="47"/>
      <point x="132" y="95"/>
      <point x="185" y="171" type="curve"/>
      <point x="199" y="161" type="line"/>
      <point x="142" y="81"/>
      <point x="55" y="31"/>
      <point x="-13" y="31" type="curve"/>
      <point x="-13" y="31"/>
      <point x="-13" y="31"/>
      <point x="-13" y="31" type="curve"/>
      <point x="-86" y="31"/>
      <point x="-104" y="86"/>
      <point x="-45" y="171" type="curve"/>
    </contour>
    <contour>
      <point x="156" y="90" type="line"/>
      <point x="158" y="90"/>
      <point x="113" y="23"/>
      <point x="185" y="170" type="curve"/>
      <point x="199" y="162" type="line"/>
      <point x="189" y="141"/>
      <point x="164" y="70"/>
      <point x="150" y="76" type="curve"/>
    </contour>
    <contour>
      <point x="-31" y="162" type="line"/>
      <point x="-61" y="104"/>
      <point x="-30" y="90"/>
      <point x="25" y="92" type="curve"/>
      <point x="25" y="76" type="line"/>
      <point x="-42" y="74"/>
      <point x="-81" y="98"/>
      <point x="-45" y="170" type="curve"/>
    </contour>
    <contour>
      <point x="-60" y="-48" type="line"/>
      <point x="-201" y="-75" type="line" smooth="yes"/>
      <point x="-210" y="-76"/>
      <point x="-215" y="-65"/>
      <point x="-208" y="-60" type="curve" smooth="yes"/>
      <point x="-170" y="-33" type="line"/>
      <point x="-160" y="-47" type="line"/>
      <point x="-198" y="-74" type="line" smooth="yes"/>
      <point x="-205" y="-78"/>
      <point x="-213" y="-61"/>
      <point x="-205" y="-59" type="curve" smooth="yes"/>
      <point x="-64" y="-32" type="line"/>
    </contour>
    <contour>
      <point x="250" y="65" type="line"/>
      <point x="110" y="38" type="line" smooth="yes"/>
      <point x="101" y="37"/>
      <point x="96" y="48"/>
      <point x="103" y="53" type="curve" smooth="yes"/>
      <point x="141" y="80" type="line"/>
      <point x="151" y="66" type="line"/>
      <point x="113" y="39" type="line" smooth="yes"/>
      <point x="106" y="34"/>
      <point x="98" y="52"/>
      <point x="106" y="54" type="curve" smooth="yes"/>
      <point x="246" y="81" type="line"/>
    </contour>
    <contour>
      <point x="180" y="434" type="line"/>
      <point x="80" y="319" type="line" smooth="yes"/>
      <point x="74" y="312"/>
      <point x="62" y="326"/>
      <point x="70" y="331" type="curve" smooth="yes"/>
      <point x="272" y="446" type="line"/>
      <point x="280" y="432" type="line"/>
      <point x="78" y="317" type="line" smooth="yes"/>
      <point x="70" y="313"/>
      <point x="62" y="322"/>
      <point x="68" y="329" type="curve" smooth="yes"/>
      <point x="168" y="444" type="line"/>
    </contour>
    <contour>
      <point x="410" y="434" type="line"/>
      <point x="310" y="319" type="line" smooth="yes"/>
      <point x="304" y="312"/>
      <point x="292" y="327"/>
      <point x="300" y="331" type="curve" smooth="yes"/>
      <point x="503" y="446" type="line"/>
      <point x="511" y="432" type="line"/>
      <point x="308" y="317" type="line" smooth="yes"/>
      <point x="300" y="313"/>
      <point x="292" y="322"/>
      <point x="298" y="329" type="curve" smooth="yes"/>
      <point x="398" y="444" type="line"/>
    </contour>
  </outline>
</glyph>
<glyph name="cedilla" format="2">
  <advance width="294"/>
  <unicode hex="00B8"/>
  <outline>
    <contour>
      <point x="-193" y="-95" type="line"/>
      <point x="-249" y="-137" type="line" smooth="yes"/>
      <point x="-257" y="-143"/>
      <point x="-266" y="-133"/>
      <point x="-260" y="-126" type="curve" smooth="yes"/>
      <point x="-141" y="5" type="line"/>
      <point x="-129" y="-5" type="line"/>
      <point x="-248" y="-136" type="line" smooth="yes"/>
      <point x="-255" y="-144"/>
      <point x="-267" y="-130"/>
      <point x="-259" y="-125" type="curve" smooth="yes"/>
      <point x="-203" y="-83" type="line"/>
    </contour>
    <contour>
      <point x="-92" y="27" type="line"/>
      <point x="-146" y="-46"/>
      <point x="-55" y="-31"/>
      <point x="-98" y="-93" type="curve" smooth="yes"/>
      <point x="-98" y="-93"/>
      <point x="-98" y="-93"/>
      <point x="-98" y="-93" type="curve" smooth="yes"/>
      <point x="-133" y="-142"/>
      <point x="-196" y="-160"/>
      <point x="-257" y="-139" type="curve"/>
      <point x="-251" y="-123" type="line"/>
      <point x="-198" y="-142"/>
      <point x="-143" y="-128"/>
      <point x="-112" y="-83" type="curve" smooth="yes"/>
      <point x="-112" y="-83"/>
      <point x="-112" y="-83"/>
      <point x="-112" y="-83" type="curve" smooth="yes"/>
      <point x="-75" y="-31"/>
      <point x="-168" y="-50"/>
      <point x="-104" y="37" type="curve"/>
    </contour>
  </outline>
</glyph>
<glyph name="guillemetright" format="2">
  <advance width="532"/>
  <unicode hex="00BB"/>
  <outline>
    <contour>
      <point x="138" y="98" type="line"/>
      <point x="197" y="147"/>
      <point x="263" y="187"/>
      <point x="343" y="224" type="curve" smooth="yes"/>
      <point x="345" y="226"/>
      <point x="338" y="214"/>
      <point x="338" y="217" type="curve" smooth="yes"/>
      <point x="340" y="292"/>
      <point x="363" y="378"/>
      <point x="413" y="486" type="curve"/>
      <point x="427" y="480" type="line"/>
      <point x="379" y="374"/>
      <point x="356" y="290"/>
      <point x="354" y="217" type="curve" smooth="yes"/>
      <point x="354" y="214"/>
      <point x="352" y="211"/>
      <point x="349" y="210" type="curve" smooth="yes"/>
      <point x="271" y="173"/>
      <point x="207" y="133"/>
      <point x="148" y="86" type="curve"/>
    </contour>
    <contour>
      <point x="385" y="284" type="line"/>
      <point x="353" y="214" type="line" smooth="yes"/>
      <point x="350" y="207"/>
      <point x="337" y="222"/>
      <point x="343" y="225" type="curve" smooth="yes"/>
      <point x="552" y="295" type="line"/>
      <point x="558" y="279" type="line"/>
      <point x="349" y="209" type="line" smooth="yes"/>
      <point x="342" y="207"/>
      <point x="336" y="214"/>
      <point x="339" y="220" type="curve" smooth="yes"/>
      <point x="371" y="290" type="line"/>
    </contour>
    <contour>
      <point x="-89" y="98" type="line"/>
      <point x="-29" y="147"/>
      <point x="37" y="187"/>
      <point x="116" y="224" type="curve" smooth="yes"/>
      <point x="118" y="226"/>
      <point x="111" y="214"/>
      <point x="111" y="217" type="curve" smooth="yes"/>
      <point x="114" y="292"/>
      <point x="136" y="378"/>
      <point x="186" y="486" type="curve"/>
      <point x="200" y="480" type="line"/>
      <point x="152" y="374"/>
      <point x="130" y="290"/>
      <point x="127" y="217" type="curve" smooth="yes"/>
      <point x="127" y="214"/>
      <point x="125" y="211"/>
      <point x="122" y="210" type="curve" smooth="yes"/>
      <point x="45" y="173"/>
      <point x="-19" y="133"/>
      <point x="-79" y="86" type="curve"/>
    </contour>
    <contour>
      <point x="159" y="284" type="line"/>
      <point x="126" y="214" type="line" smooth="yes"/>
      <point x="123" y="207"/>
      <point x="110" y="222"/>
      <point x="116" y="225" type="curve" smooth="yes"/>
      <point x="326" y="295" type="line"/>
      <point x="332" y="279" type="line"/>
      <point x="122" y="209" type="line" smooth="yes"/>
      <point x="115" y="207"/>
      <point x="109" y="214"/>
      <point x="112" y="220" type="curve" smooth="yes"/>
      <point x="145" y="290" type="line"/>
    </contour>
  </outline>
</glyph>
<glyph name="onequarter" format="2">
  <advance width="635"/>
  <unicode hex="00BC"/>
  <outline>
    <contour>
      <point x="120" y="440" type="line"/>
      <point x="145" y="446"/>
      <point x="175" y="452"/>
      <point x="208" y="457" type="curve" smooth="yes"/>
      <point x="215" y="458"/>
      <point x="220" y="450"/>
      <point x="215" y="444" type="curve" smooth="yes"/>
      <point x="199" y="424"/>
      <point x="185" y="404"/>
      <point x="139" y="340" type="curve" smooth="yes"/>
      <point x="139" y="340"/>
      <point x="140" y="340"/>
      <point x="140" y="340" type="curve" smooth="yes"/>
      <point x="60" y="226" type="line"/>
      <point x="46" y="236" type="line"/>
      <point x="126" y="350" type="line" smooth="yes"/>
      <point x="126" y="350"/>
      <point x="126" y="350"/>
      <point x="127" y="350" type="curve" smooth="yes"/>
      <point x="173" y="414"/>
      <point x="187" y="434"/>
      <point x="203" y="454" type="curve" smooth="yes"/>
      <point x="207" y="460"/>
      <point x="217" y="442"/>
      <point x="210" y="441" type="curve" smooth="yes"/>
      <point x="177" y="436"/>
      <point x="149" y="430"/>
      <point x="124" y="424" type="curve"/>
    </contour>
    <contour>
      <point x="204" y="257" type="line"/>
      <point x="55" y="223" type="line" smooth="yes"/>
      <point x="47" y="221"/>
      <point x="42" y="231"/>
      <point x="47" y="237" type="curve" smooth="yes"/>
      <point x="81" y="271" type="line"/>
      <point x="93" y="259" type="line"/>
      <point x="59" y="225" type="line" smooth="yes"/>
      <point x="53" y="220"/>
      <point x="43" y="237"/>
      <point x="51" y="239" type="curve" smooth="yes"/>
      <point x="200" y="273" type="line"/>
    </contour>
    <contour>
      <point x="170" y="439" type="line"/>
      <point x="125" y="424" type="line" smooth="yes"/>
      <point x="116" y="422"/>
      <point x="110" y="432"/>
      <point x="116" y="438" type="curve" smooth="yes"/>
      <point x="223" y="541" type="line"/>
      <point x="235" y="529" type="line"/>
      <point x="128" y="426" type="line" smooth="yes"/>
      <point x="121" y="420"/>
      <point x="111" y="437"/>
      <point x="119" y="440" type="curve" smooth="yes"/>
      <point x="164" y="455" type="line"/>
    </contour>
    <contour>
      <point x="255" y="467" type="line"/>
      <point x="213" y="442" type="line" smooth="yes"/>
      <point x="204" y="437"/>
      <point x="196" y="451"/>
      <point x="205" y="456" type="curve" smooth="yes"/>
      <point x="405" y="571" type="line"/>
      <point x="413" y="557" type="line"/>
      <point x="213" y="442" type="line" smooth="yes"/>
      <point x="204" y="437"/>
      <point x="196" y="450"/>
      <point x="205" y="456" type="curve" smooth="yes"/>
      <point x="247" y="481" type="line"/>
    </contour>
    <contour>
      <point x="497" y="441" type="line"/>
      <point x="-39" y="33" type="line"/>
      <point x="-49" y="45" type="line"/>
      <point x="487" y="453" type="line"/>
    </contour>
    <contour>
      <point x="75" y="65" type="line"/>
      <point x="-42" y="31" type="line" smooth="yes"/>
      <point x="-49" y="29"/>
      <point x="-55" y="38"/>
      <point x="-50" y="44" type="curve" smooth="yes"/>
      <point x="-22" y="78" type="line"/>
      <point x="-10" y="68" type="line"/>
      <point x="-38" y="34" type="line" smooth="yes"/>
      <point x="-43" y="28"/>
      <point x="-54" y="44"/>
      <point x="-46" y="47" type="curve" smooth="yes"/>
      <point x="71" y="81" type="line"/>
    </contour>
    <contour>
      <point x="621" y="548" type="line"/>
      <point x="497" y="441" type="line" smooth="yes"/>
      <point x="490" y="435"/>
      <point x="480" y="450"/>
      <point x="488" y="454" type="curve" smooth="yes"/>
      <point x="701" y="561" type="line"/>
      <point x="709" y="547" type="line"/>
      <point x="496" y="440" type="line" smooth="yes"/>
      <point x="487" y="436"/>
      <point x="480" y="447"/>
      <point x="487" y="453" type="curve" smooth="yes"/>
      <point x="611" y="560" type="line"/>
    </contour>
    <contour>
      <point x="305" y="44" type="line"/>
      <point x="459" y="263" type="line" smooth="yes"/>
      <point x="463" y="268"/>
      <point x="472" y="250"/>
      <point x="466" y="250" type="curve" smooth="yes"/>
      <point x="407" y="250" type="line" smooth="yes"/>
      <point x="405" y="250"/>
      <point x="414" y="253"/>
      <point x="412" y="252" type="curve" smooth="yes"/>
      <point x="222" y="95" type="line" smooth="yes"/>
      <point x="216" y="90"/>
      <point x="210" y="109"/>
      <point x="217" y="109" type="curve" smooth="yes"/>
      <point x="400" y="109" type="line"/>
      <point x="400" y="93" type="line"/>
      <point x="217" y="93" type="line" smooth="yes"/>
      <point x="210" y="93"/>
      <point x="206" y="102"/>
      <point x="212" y="107" type="curve" smooth="yes"/>
      <point x="402" y="264" type="line" smooth="yes"/>
      <point x="403" y="265"/>
      <point x="405" y="266"/>
      <point x="407" y="266" type="curve" smooth="yes"/>
      <point x="466" y="266" type="line" smooth="yes"/>
      <point x="472" y="266"/>
      <point x="476" y="259"/>
      <point x="473" y="253" type="curve" smooth="yes"/>
      <point x="319" y="34" type="line"/>
    </contour>
    <contour>
      <point x="267" y="134" type="line"/>
      <point x="222" y="95" type="line" smooth="yes"/>
      <point x="215" y="89"/>
      <point x="205" y="104"/>
      <point x="213" y="108" type="curve" smooth="yes"/>
      <point x="410" y="210" type="line"/>
      <point x="418" y="196" type="line"/>
      <point x="221" y="94" type="line" smooth="yes"/>
      <point x="212" y="90"/>
      <point x="205" y="101"/>
      <point x="212" y="107" type="curve" smooth="yes"/>
      <point x="257" y="146" type="line"/>
    </contour>
    <contour>
      <point x="543" y="356" type="line"/>
      <point x="412" y="252" type="line" smooth="yes"/>
      <point x="405" y="246"/>
      <point x="396" y="263"/>
      <point x="405" y="266" type="curve" smooth="yes"/>
      <point x="518" y="302" type="line" smooth="yes"/>
      <point x="526" y="304"/>
      <point x="532" y="292"/>
      <point x="524" y="287" type="curve" smooth="yes"/>
      <point x="470" y="251" type="line" smooth="yes"/>
      <point x="462" y="246"/>
      <point x="453" y="260"/>
      <point x="462" y="265" type="curve" smooth="yes"/>
      <point x="661" y="369" type="line"/>
      <point x="669" y="355" type="line"/>
      <point x="470" y="251" type="line" smooth="yes"/>
      <point x="461" y="246"/>
      <point x="453" y="259"/>
      <point x="462" y="265" type="curve" smooth="yes"/>
      <point x="516" y="301" type="line" smooth="yes"/>
      <point x="523" y="306"/>
      <point x="531" y="289"/>
      <point x="522" y="286" type="curve" smooth="yes"/>
      <point x="409" y="250" type="line" smooth="yes"/>
      <point x="401" y="248"/>
      <point x="395" y="259"/>
      <point x="402" y="264" type="curve" smooth="yes"/>
      <point x="533" y="368" type="line"/>
    </contour>
    <contour>
      <point x="590" y="206" type="line"/>
      <point x="404" y="94" type="line" smooth="yes"/>
      <point x="396" y="89"/>
      <point x="389" y="107"/>
      <point x="398" y="109" type="curve" smooth="yes"/>
      <point x="526" y="139" type="line"/>
      <point x="530" y="123" type="line"/>
      <point x="402" y="93" type="line" smooth="yes"/>
      <point x="393" y="91"/>
      <point x="388" y="103"/>
      <point x="396" y="108" type="curve" smooth="yes"/>
      <point x="582" y="220" type="line"/>
    </contour>
    <contour>
      <point x="544" y="198" type="line"/>
      <point x="359" y="94" type="line" smooth="yes"/>
      <point x="350" y="89"/>
      <point x="342" y="102"/>
      <point x="350" y="108" type="curve" smooth="yes"/>
      <point x="406" y="147" type="line"/>
      <point x="416" y="133" type="line"/>
      <point x="360" y="94" type="line" smooth="yes"/>
      <point x="351" y="89"/>
      <point x="342" y="103"/>
      <point x="351" y="108" type="curve" smooth="yes"/>
      <point x="536" y="212" type="line"/>
    </contour>
    <contour>
      <point x="463" y="197" type="line"/>
      <point x="361" y="95" type="line" smooth="yes"/>
      <point x="355" y="90"/>
      <point x="345" y="107"/>
      <point x="353" y="109" type="curve" smooth="yes"/>
      <point x="493" y="147" type="line"/>
      <point x="497" y="131" type="line"/>
      <point x="357" y="93" type="line" smooth="yes"/>
      <point x="349" y="91"/>
      <point x="344" y="101"/>
      <point x="349" y="107" type="curve" smooth="yes"/>
      <point x="451" y="209" type="line"/>
    </contour>
    <contour>
      <point x="462" y="65" type="line"/>
      <point x="314" y="31" type="line" smooth="yes"/>
      <point x="306" y="29"/>
      <point x="300" y="40"/>
      <point x="307" y="45" type="curve" smooth="yes"/>
      <point x="347" y="79" type="line"/>
      <point x="357" y="67" type="line"/>
      <point x="317" y="33" type="line" smooth="yes"/>
      <point x="311" y="27"/>
      <point x="302" y="45"/>
      <point x="310" y="47" type="curve" smooth="yes"/>
      <point x="458" y="81" type="line"/>
    </contour>
  </outline>
</glyph>
<glyph name="multiply" format="2">
  <advance width="379"/>
  <unicode hex="00D7"/>
  <outline>
    <contour>
      <point x="116" y="129" type="line"/>
      <point x="90" y="218" type="line"/>
      <point x="90" y="218"/>
      <point x="90" y="218"/>
      <point x="90" y="218" type="curve"/>
      <point x="64" y="307" type="line"/>
      <point x="80" y="311" type="line"/>
      <point x="106" y="222" type="line"/>
      <point x="106" y="222"/>
      <point x="106" y="222"/>
      <point x="106" y="222" type="curve"/>
      <point x="132" y="133" type="line"/>
    </contour>
    <contour>
      <point x="254" y="302" type="line"/>
      <point x="102" y="213" type="line"/>
      <point x="102" y="213"/>
      <point x="102" y="213"/>
      <point x="102" y="213" type="curve"/>
      <point x="-50" y="124" type="line"/>
      <point x="-58" y="138" type="line"/>
      <point x="94" y="227" type="line"/>
      <point x="94" y="227"/>
      <point x="94" y="227"/>
      <point x="94" y="227" type="curve"/>
      <point x="246" y="316" type="line"/>
    </contour>
    <contour>
      <point x="20" y="127" type="line"/>
      <point x="-54" y="123" type="line" smooth="yes"/>
      <point x="-60" y="123"/>
      <point x="-65" y="130"/>
      <point x="-60" y="136" type="curve" smooth="yes"/>
      <point x="-5" y="208" type="line"/>
      <point x="7" y="198" type="line"/>
      <point x="-48" y="126" type="line" smooth="yes"/>
      <point x="-52" y="121"/>
      <point x="-61" y="139"/>
      <point x="-54" y="139" type="curve" smooth="yes"/>
      <point x="20" y="143" type="line"/>
    </contour>
    <contour>
      <point x="422" y="441" type="line"/>
      <point x="255" y="303" type="line" smooth="yes"/>
      <point x="248" y="297"/>
      <point x="239" y="313"/>
      <point x="247" y="316" type="curve" smooth="yes"/>
      <point x="434" y="386" type="line"/>
      <point x="440" y="372" type="line"/>
      <point x="253" y="302" type="line" smooth="yes"/>
      <point x="244" y="298"/>
      <point x="238" y="309"/>
      <point x="245" y="315" type="curve" smooth="yes"/>
      <point x="412" y="453" type="line"/>
    </contour>
    <contour>
      <point x="315" y="196" type="line"/>
      <point x="127" y="124" type="line" smooth="yes"/>
      <point x="118" y="120"/>
      <point x="114" y="138"/>
      <point x="124" y="139" type="curve" smooth="yes"/>
      <point x="197" y="143" type="line"/>
      <point x="197" y="127" type="line"/>
      <point x="124" y="123" type="line" smooth="yes"/>
      <point x="115" y="123"/>
      <point x="113" y="135"/>
      <point x="121" y="138" type="curve" smooth="yes"/>
      <point x="309" y="210" type="line"/>
    </contour>
    <contour>
      <point x="132" y="374" type="line"/>
      <point x="78" y="304" type="line" smooth="yes"/>
      <point x="73" y="297"/>
      <point x="60" y="309"/>
      <point x="67" y="315" type="curve" smooth="yes"/>
      <point x="235" y="453" type="line"/>
      <point x="245" y="441" type="line"/>
      <point x="77" y="303" type="line" smooth="yes"/>
      <point x="70" y="297"/>
      <point x="60" y="306"/>
      <point x="66" y="314" type="curve" smooth="yes"/>
      <point x="120" y="384" type="line"/>
    </contour>
    <contour>
      <point x="271" y="352" type="line"/>
      <point x="103" y="214" type="line" smooth="yes"/>
      <point x="97" y="209"/>
      <point x="90" y="228"/>
      <point x="98" y="228" type="curve" smooth="yes"/>
      <point x="171" y="232" type="line"/>
      <point x="171" y="216" type="line"/>
      <point x="98" y="212" type="line" smooth="yes"/>
      <point x="91" y="212"/>
      <point x="87" y="221"/>
      <point x="93" y="226" type="curve" smooth="yes"/>
      <point x="261" y="364" type="line"/>
    </contour>
    <contour>
      <point x="158" y="286" type="line"/>
      <point x="104" y="215" type="line" smooth="yes"/>
      <point x="100" y="209"/>
      <point x="88" y="225"/>
      <point x="95" y="227" type="curve" smooth="yes"/>
      <point x="283" y="298" type="line"/>
      <point x="289" y="284" type="line"/>
      <point x="101" y="213" type="line" smooth="yes"/>
      <point x="93" y="210"/>
      <point x="87" y="218"/>
      <point x="92" y="225" type="curve" smooth="yes"/>
      <point x="146" y="296" type="line"/>
    </contour>
  </outline>
</glyph>
<glyph name="Thorn" format="2">
  <advance width="416"/>
  <unicode hex="00DE"/>
  <outline>
    <contour>
      <point x="181" y="435" type="line"/>
      <point x="-97" y="41" type="line"/>
      <point x="-111" y="51" type="line"/>
      <point x="167" y="445" type="line"/>
    </contour>
    <contour>
      <point x="56" y="65" type="line"/>
      <point x="-103" y="38" type="line" smooth="yes"/>
      <point x="-110" y="37"/>
      <point x="-115" y="45"/>
      <point x="-111" y="51" type="curve" smooth="yes"/>
      <point x="-92" y="78" type="line"/>
      <point x="-78" y="68" type="line"/>
      <point x="-97" y="41" type="line" smooth="yes"/>
      <point x="-102" y="36"/>
      <point x="-112" y="53"/>
      <point x="-105" y="54" type="curve" smooth="yes"/>
      <point x="54" y="81" type="line"/>
    </contour>
    <contour>
      <point x="262" y="549" type="line"/>
      <point x="181" y="435" type="line" smooth="yes"/>
      <point x="176" y="429"/>
      <point x="163" y="443"/>
      <point x="170" y="447" type="curve" smooth="yes"/>
      <point x="391" y="561" type="line"/>
      <point x="399" y="547" type="line"/>
      <point x="178" y="433" type="line" smooth="yes"/>
      <point x="170" y="429"/>
      <point x="163" y="438"/>
      <point x="167" y="445" type="curve" smooth="yes"/>
      <point x="248" y="559" type="line"/>
    </contour>
    <contour>
      <point x="-47" y="136" type="line"/>
      <point x="67" y="136" type="line"/>
      <point x="67" y="136"/>
      <point x="67" y="136"/>
      <point x="67" y="136" type="curve"/>
      <point x="143" y="136"/>
      <point x="220" y="181"/>
      <point x="267" y="248" type="curve" smooth="yes"/>
      <point x="267" y="248"/>
      <point x="267" y="248"/>
      <point x="267" y="248" type="curve" smooth="yes"/>
      <point x="311" y="311"/>
      <point x="302" y="350"/>
      <point x="230" y="350" type="curve"/>
      <point x="230" y="350"/>
      <point x="230" y="350"/>
      <point x="230" y="350" type="curve"/>
      <point x="116" y="350" type="line"/>
      <point x="116" y="366" type="line"/>
      <point x="230" y="366" type="line"/>
      <point x="230" y="366"/>
      <point x="230" y="366"/>
      <point x="230" y="366" type="curve"/>
      <point x="316" y="366"/>
      <point x="333" y="313"/>
      <point x="281" y="238" type="curve" smooth="yes"/>
      <point x="281" y="238"/>
      <point x="281" y="238"/>
      <point x="281" y="238" type="curve" smooth="yes"/>
      <point x="230" y="167"/>
      <point x="149" y="120"/>
      <point x="67" y="120" type="curve"/>
      <point x="67" y="120"/>
      <point x="67" y="120"/>
      <point x="67" y="120" type="curve"/>
      <point x="-47" y="120" type="line"/>
    </contour>
    <contour>
      <point x="160" y="236" type="line"/>
      <point x="-43" y="121" type="line" smooth="yes"/>
      <point x="-51" y="117"/>
      <point x="-57" y="134"/>
      <point x="-48" y="136" type="curve" smooth="yes"/>
      <point x="95" y="163" type="line"/>
      <point x="97" y="147" type="line"/>
      <point x="-46" y="120" type="line" smooth="yes"/>
      <point x="-54" y="118"/>
      <point x="-59" y="131"/>
      <point x="-51" y="135" type="curve" smooth="yes"/>
      <point x="152" y="250" type="line"/>
    </contour>
    <contour>
      <point x="325" y="466" type="line"/>
      <point x="120" y="351" type="line" smooth="yes"/>
      <point x="112" y="347"/>
      <point x="106" y="364"/>
      <point x="115" y="366" type="curve" smooth="yes"/>
      <point x="255" y="392" type="line"/>
      <point x="257" y="376" type="line"/>
      <point x="117" y="350" type="line" smooth="yes"/>
      <point x="109" y="348"/>
      <point x="104" y="361"/>
      <point x="112" y="365" type="curve" smooth="yes"/>
      <point x="317" y="480" type="line"/>
    </contour>
  </outline>
</glyph>
<glyph name="quotedblleft" format="2">
  <advance width="353"/>
  <unicode hex="201C"/>
  <outline>
    <contour>
      <point x="400" y="554" type="line"/>
      <point x="270" y="486"/>
      <point x="156" y="400"/>
      <point x="80" y="322" type="curve"/>
      <point x="68" y="334" type="line"/>
      <point x="146" y="412"/>
      <point x="260" y="500"/>
      <point x="392" y="568" type="curve"/>
    </contour>
    <contour>
      <point x="227" y="347" type="line"/>
      <point x="75" y="320" type="line" smooth="yes"/>
      <point x="67" y="319"/>
      <point x="63" y="329"/>
      <point x="69" y="334" type="curve" smooth="yes"/>
      <point x="103" y="361" type="line"/>
      <point x="113" y="349" type="line"/>
      <point x="79" y="322" type="line" smooth="yes"/>
      <point x="72" y="317"/>
      <point x="64" y="334"/>
      <point x="73" y="336" type="curve" smooth="yes"/>
      <point x="225" y="363" type="line"/>
    </contour>
    <contour>
      <point x="559" y="554" type="line"/>
      <point x="429" y="486"/>
      <point x="315" y="400"/>
      <point x="239" y="322" type="curve"/>
      <point x="227" y="334" type="line"/>
      <point x="305" y="412"/>
      <point x="419" y="500"/>
      <point x="551" y="568" type="curve"/>
    </contour>
    <contour>
      <point x="386" y="347" type="line"/>
      <point x="234" y="320" type="line" smooth="yes"/>
      <point x="226" y="319"/>
      <point x="222" y="329"/>
      <point x="228" y="334" type="curve" smooth="yes"/>
      <point x="262" y="361" type="line"/>
      <point x="272" y="349" type="line"/>
      <point x="238" y="322" type="line" smooth="yes"/>
      <point x="231" y="317"/>
      <point x="223" y="334"/>
      <point x="232" y="336" type="curve" smooth="yes"/>
      <point x="384" y="363" type="line"/>
    </contour>
  </outline>
</glyph>
<glyph name="bullet" format="2">
  <advance width="402"/>
  <unicode hex="2022"/>
  <outline>
    <contour>
      <point x="202" y="405" type="line"/>
      <point x="116" y="217" type="line" smooth="yes"/>
      <point x="114" y="212"/>
      <point x="107" y="229"/>
      <point x="111" y="228" type="curve" smooth="yes"/>
      <point x="266" y="181" type="line"/>
      <point x="262" y="165" type="line"/>
      <point x="107" y="212" type="line" smooth="yes"/>
      <point x="102" y="214"/>
      <point x="100" y="219"/>
      <point x="102" y="223" type="curve" smooth="yes"/>
      <point x="188" y="411" type="line"/>
    </contour>
    <contour>
      <point x="25" y="180" type="line"/>
      <point x="105" y="227" type="line" smooth="yes"/>
      <point x="105" y="227"/>
      <point x="105" y="227"/>
      <point x="105" y="227" type="curve" smooth="yes"/>
      <point x="426" y="415" type="line"/>
      <point x="434" y="401" type="line"/>
      <point x="113" y="213" type="line" smooth="yes"/>
      <point x="113" y="213"/>
      <point x="113" y="213"/>
      <point x="113" y="213" type="curve" smooth="yes"/>
      <point x="33" y="166" type="line"/>
    </contour>
  </outline>
</glyph>
<glyph name="four.superior" format="2">
  <advance width="316"/>
  <unicode hex="2074"/>
  <outline>
    <contour>
      <point x="116" y="236" type="line"/>
      <point x="270" y="454" type="line" smooth="yes"/>
      <point x="274" y="459"/>
      <point x="283" y="441"/>
      <point x="277" y="441" type="curve" smooth="yes"/>
      <point x="218" y="441" type="line" smooth="yes"/>
      <point x="216" y="441"/>
      <point x="225" y="444"/>
      <point x="223" y="443" type="curve" smooth="yes"/>
      <point x="32" y="286" type="line" smooth="yes"/>
      <point x="26" y="281"/>
      <point x="19" y="300"/>
      <point x="27" y="300" type="curve" smooth="yes"/>
      <point x="211" y="300" type="line"/>
      <point x="211" y="284" type="line"/>
      <point x="27" y="284" type="line" smooth="yes"/>
      <point x="19" y="284"/>
      <point x="16" y="293"/>
      <point x="22" y="298" type="curve" smooth="yes"/>
      <point x="213" y="455" type="line" smooth="yes"/>
      <point x="214" y="456"/>
      <point x="216" y="457"/>
      <point x="218" y="457" type="curve" smooth="yes"/>
      <point x="277" y="457" type="line" smooth="yes"/>
      <point x="283" y="457"/>
      <point x="287" y="450"/>
      <point x="284" y="444" type="curve" smooth="yes"/>
      <point x="130" y="226" type="line"/>
    </contour>
    <contour>
      <point x="77" y="326" type="line"/>
      <point x="32" y="286" type="line" smooth="yes"/>
      <point x="25" y="280"/>
      <point x="15" y="295"/>
      <point x="23" y="299" type="curve" smooth="yes"/>
      <point x="220" y="402" type="line"/>
      <point x="228" y="388" type="line"/>
      <point x="31" y="285" type="line" smooth="yes"/>
      <point x="22" y="281"/>
      <point x="15" y="292"/>
      <point x="22" y="298" type="curve" smooth="yes"/>
      <point x="67" y="338" type="line"/>
    </contour>
    <contour>
      <point x="354" y="548" type="line"/>
      <point x="223" y="443" type="line" smooth="yes"/>
      <point x="216" y="437"/>
      <point x="207" y="454"/>
      <point x="216" y="457" type="curve" smooth="yes"/>
      <point x="329" y="493" type="line" smooth="yes"/>
      <point x="337" y="495"/>
      <point x="343" y="483"/>
      <point x="335" y="478" type="curve" smooth="yes"/>
      <point x="281" y="442" type="line" smooth="yes"/>
      <point x="273" y="437"/>
      <point x="264" y="451"/>
      <point x="273" y="456" type="curve" smooth="yes"/>
      <point x="472" y="561" type="line"/>
      <point x="480" y="547" type="line"/>
      <point x="281" y="442" type="line" smooth="yes"/>
      <point x="272" y="437"/>
      <point x="264" y="450"/>
      <point x="273" y="456" type="curve" smooth="yes"/>
      <point x="327" y="492" type="line" smooth="yes"/>
      <point x="334" y="497"/>
      <point x="342" y="480"/>
      <point x="333" y="477" type="curve" smooth="yes"/>
      <point x="220" y="441" type="line" smooth="yes"/>
      <point x="212" y="439"/>
      <point x="206" y="450"/>
      <point x="213" y="455" type="curve" smooth="yes"/>
      <point x="344" y="560" type="line"/>
    </contour>
    <contour>
      <point x="401" y="398" type="line"/>
      <point x="215" y="285" type="line" smooth="yes"/>
      <point x="207" y="280"/>
      <point x="200" y="298"/>
      <point x="209" y="300" type="curve" smooth="yes"/>
      <point x="337" y="331" type="line"/>
      <point x="341" y="315" type="line"/>
      <point x="213" y="284" type="line" smooth="yes"/>
      <point x="204" y="282"/>
      <point x="199" y="294"/>
      <point x="207" y="299" type="curve" smooth="yes"/>
      <point x="393" y="412" type="line"/>
    </contour>
    <contour>
      <point x="355" y="389" type="line"/>
      <point x="170" y="285" type="line" smooth="yes"/>
      <point x="161" y="280"/>
      <point x="153" y="293"/>
      <point x="161" y="299" type="curve" smooth="yes"/>
      <point x="217" y="339" type="line"/>
      <point x="227" y="325" type="line"/>
      <point x="171" y="285" type="line" smooth="yes"/>
      <point x="162" y="280"/>
      <point x="153" y="294"/>
      <point x="162" y="299" type="curve" smooth="yes"/>
      <point x="347" y="403" type="line"/>
    </contour>
    <contour>
      <point x="274" y="389" type="line"/>
      <point x="172" y="286" type="line" smooth="yes"/>
      <point x="166" y="281"/>
      <point x="156" y="298"/>
      <point x="164" y="300" type="curve" smooth="yes"/>
      <point x="304" y="339" type="line"/>
      <point x="308" y="323" type="line"/>
      <point x="168" y="284" type="line" smooth="yes"/>
      <point x="160" y="282"/>
      <point x="155" y="292"/>
      <point x="160" y="298" type="curve" smooth="yes"/>
      <point x="262" y="401" type="line"/>
    </contour>
    <contour>
      <point x="273" y="257" type="line"/>
      <point x="125" y="223" type="line" smooth="yes"/>
      <point x="117" y="221"/>
      <point x="111" y="232"/>
      <point x="118" y="237" type="curve" smooth="yes"/>
      <point x="158" y="271" type="line"/>
      <point x="168" y="259" type="line"/>
      <point x="128" y="225" type="line" smooth="yes"/>
      <point x="122" y="219"/>
      <point x="113" y="237"/>
      <point x="121" y="239" type="curve" smooth="yes"/>
      <point x="269" y="273" type="line"/>
    </contour>
  </outline>
</glyph>
<glyph name="minus" format="2">
  <advance width="346"/>
  <unicode hex="2212"/>
  <outline>
    <contour>
      <point x="183" y="214" type="line"/>
      <point x="-19" y="214" type="line"/>
      <point x="-19" y="230" type="line"/>
      <point x="183" y="230" type="line"/>
    </contour>
    <contour>
      <point x="31" y="241" type="line"/>
      <point x="-15" y="215" type="line" smooth="yes"/>
      <point x="-23" y="211"/>
      <point x="-31" y="221"/>
      <point x="-25" y="227" type="curve" smooth="yes"/>
      <point x="84" y="343" type="line"/>
      <point x="96" y="333" type="line"/>
      <point x="-13" y="217" type="line" smooth="yes"/>
      <point x="-19" y="210"/>
      <point x="-31" y="224"/>
      <point x="-23" y="229" type="curve" smooth="yes"/>
      <point x="23" y="255" type="line"/>
    </contour>
    <contour>
      <point x="384" y="331" type="line"/>
      <point x="187" y="215" type="line" smooth="yes"/>
      <point x="179" y="211"/>
      <point x="173" y="228"/>
      <point x="181" y="230" type="curve" smooth="yes"/>
      <point x="314" y="256" type="line"/>
      <point x="318" y="240" type="line"/>
      <point x="185" y="214" type="line" smooth="yes"/>
      <point x="176" y="212"/>
      <point x="171" y="224"/>
      <point x="179" y="229" type="curve" smooth="yes"/>
      <point x="376" y="345" type="line"/>
    </contour>
  </outline>
</glyph>
